G04 #@! TF.GenerationSoftware,KiCad,Pcbnew,(5.1.6)-1*
G04 #@! TF.CreationDate,2020-06-14T17:11:32+02:00*
G04 #@! TF.ProjectId,fuseboardv4,66757365-626f-4617-9264-76342e6b6963,rev?*
G04 #@! TF.SameCoordinates,Original*
G04 #@! TF.FileFunction,Copper,L2,Bot*
G04 #@! TF.FilePolarity,Positive*
%FSLAX46Y46*%
G04 Gerber Fmt 4.6, Leading zero omitted, Abs format (unit mm)*
G04 Created by KiCad (PCBNEW (5.1.6)-1) date 2020-06-14 17:11:32*
%MOMM*%
%LPD*%
G01*
G04 APERTURE LIST*
G04 #@! TA.AperFunction,Profile*
%ADD10C,0.150000*%
G04 #@! TD*
G04 #@! TA.AperFunction,ComponentPad*
%ADD11C,3.810000*%
G04 #@! TD*
G04 #@! TA.AperFunction,ComponentPad*
%ADD12C,2.224000*%
G04 #@! TD*
G04 #@! TA.AperFunction,ComponentPad*
%ADD13C,2.600000*%
G04 #@! TD*
G04 #@! TA.AperFunction,ComponentPad*
%ADD14R,2.600000X2.600000*%
G04 #@! TD*
G04 #@! TA.AperFunction,ComponentPad*
%ADD15O,1.905000X3.810000*%
G04 #@! TD*
G04 #@! TA.AperFunction,ComponentPad*
%ADD16C,1.320800*%
G04 #@! TD*
G04 #@! TA.AperFunction,Conductor*
%ADD17C,1.016000*%
G04 #@! TD*
G04 #@! TA.AperFunction,Conductor*
%ADD18C,0.406400*%
G04 #@! TD*
G04 #@! TA.AperFunction,Conductor*
%ADD19C,2.032000*%
G04 #@! TD*
G04 #@! TA.AperFunction,Conductor*
%ADD20C,5.283200*%
G04 #@! TD*
G04 #@! TA.AperFunction,Conductor*
%ADD21C,9.000000*%
G04 #@! TD*
G04 APERTURE END LIST*
D10*
X87630000Y-147320000D02*
X205000000Y-147320000D01*
X205000000Y-54610000D02*
X87630000Y-54610000D01*
X87630000Y-54610000D02*
X87630000Y-147320000D01*
X205000000Y-54610000D02*
X205000000Y-147320000D01*
D11*
X196469000Y-79248000D03*
X196469000Y-137160000D03*
X196469000Y-117856000D03*
X196469000Y-98552000D03*
X123571000Y-137160000D03*
X123571000Y-117856000D03*
X123571000Y-98552000D03*
X123571000Y-79248000D03*
X200949000Y-137160000D03*
X200949000Y-79248000D03*
X200949000Y-98552000D03*
X200949000Y-117856000D03*
X128051000Y-79248000D03*
X128051000Y-98552000D03*
X128051000Y-117856000D03*
X128051000Y-137160000D03*
D12*
X99606100Y-62230000D03*
D13*
X176410000Y-62230000D03*
D14*
X168910000Y-62230000D03*
D12*
X99606100Y-142240000D03*
D13*
X143390000Y-62230000D03*
D14*
X135890000Y-62230000D03*
D15*
X94780100Y-70104000D03*
X104940100Y-70104000D03*
X89700100Y-70104000D03*
X110020100Y-70104000D03*
X94780100Y-89408000D03*
X104940100Y-89408000D03*
X89700100Y-89408000D03*
X110020100Y-89408000D03*
X94907100Y-108712000D03*
X105067100Y-108712000D03*
X89827100Y-108712000D03*
X110147100Y-108712000D03*
X95034100Y-128206500D03*
X105194100Y-128206500D03*
X89954100Y-128206500D03*
X110274100Y-128206500D03*
D16*
X114846100Y-67000000D03*
X112306100Y-67000000D03*
X114846100Y-85598000D03*
X112306100Y-85598000D03*
X114846100Y-104902000D03*
X112306100Y-104902000D03*
X114846100Y-124396500D03*
X112306100Y-124396500D03*
X117348000Y-66294000D03*
X117348000Y-73914000D03*
X117348000Y-85598000D03*
X117348000Y-93218000D03*
X117348000Y-112522000D03*
X117348000Y-104902000D03*
X117602000Y-124396500D03*
X117602000Y-132016500D03*
D15*
X104940100Y-79248000D03*
X94780100Y-79248000D03*
X110020100Y-79248000D03*
X89700100Y-79248000D03*
X105067100Y-98552000D03*
X94907100Y-98552000D03*
X110147100Y-98552000D03*
X89827100Y-98552000D03*
X105067100Y-117856000D03*
X94907100Y-117856000D03*
X110147100Y-117856000D03*
X89827100Y-117856000D03*
X105067100Y-137350500D03*
X94907100Y-137350500D03*
X110147100Y-137350500D03*
X89827100Y-137350500D03*
D16*
X119126000Y-75438000D03*
X119126000Y-83058000D03*
X119380000Y-94742000D03*
X119380000Y-102362000D03*
X119380000Y-114046000D03*
X119380000Y-121666000D03*
X119380000Y-133540500D03*
X119380000Y-141160500D03*
X114846100Y-75438000D03*
X112306100Y-75438000D03*
X114846100Y-94742000D03*
X112306100Y-94742000D03*
X114846100Y-114046000D03*
X112306100Y-114046000D03*
X114846100Y-133540500D03*
X112306100Y-133540500D03*
D17*
X105410000Y-70104000D02*
X110490000Y-70104000D01*
D18*
X117348000Y-73914000D02*
X117348000Y-70104000D01*
D19*
X128051000Y-72171000D02*
X128051000Y-79248000D01*
X110020100Y-70104000D02*
X125984000Y-70104000D01*
X125984000Y-70104000D02*
X128051000Y-72171000D01*
D17*
X105410000Y-89408000D02*
X110490000Y-89408000D01*
D18*
X117348000Y-93218000D02*
X117348000Y-89408000D01*
D19*
X128051000Y-92491000D02*
X128051000Y-98552000D01*
X110020100Y-89408000D02*
X124968000Y-89408000D01*
X124968000Y-89408000D02*
X128051000Y-92491000D01*
D17*
X105067100Y-108712000D02*
X110147100Y-108712000D01*
D18*
X117348000Y-112522000D02*
X117348000Y-108712000D01*
D19*
X128051000Y-110271000D02*
X128051000Y-117856000D01*
X110147100Y-108712000D02*
X126492000Y-108712000D01*
X126492000Y-108712000D02*
X128051000Y-110271000D01*
D17*
X105194100Y-128206500D02*
X110274100Y-128206500D01*
D18*
X117602000Y-132016500D02*
X117602000Y-128016000D01*
D19*
X128051000Y-130591000D02*
X128051000Y-137160000D01*
X110274100Y-128206500D02*
X125666500Y-128206500D01*
X125666500Y-128206500D02*
X128051000Y-130591000D01*
D17*
X89700100Y-70104000D02*
X94780100Y-70104000D01*
X94780100Y-70104000D02*
X99606100Y-70104000D01*
X89700100Y-89408000D02*
X94780100Y-89408000D01*
X94780100Y-89408000D02*
X98552000Y-89408000D01*
X89954100Y-128206500D02*
X95034100Y-128206500D01*
X95034100Y-128206500D02*
X99542600Y-128206500D01*
D18*
X112306100Y-114046000D02*
X112306100Y-124396500D01*
X112306100Y-75438000D02*
X112306100Y-85598000D01*
X112306100Y-94742000D02*
X112306100Y-105156000D01*
D17*
X96617600Y-108712000D02*
X99606100Y-108712000D01*
X96109600Y-108712000D02*
X96617600Y-108712000D01*
X94907100Y-108712000D02*
X96109600Y-108712000D01*
X89827100Y-108712000D02*
X94907100Y-108712000D01*
D20*
X128270000Y-62230000D02*
X135890000Y-62230000D01*
X99606100Y-142786100D02*
X99606100Y-62230000D01*
X99606100Y-62230000D02*
X143390000Y-62230000D01*
D18*
X114846100Y-75438000D02*
X119126000Y-75438000D01*
X114846100Y-94742000D02*
X119380000Y-94742000D01*
X114846100Y-114046000D02*
X119380000Y-114046000D01*
X114846100Y-133540500D02*
X119380000Y-133540500D01*
D21*
X198900000Y-70866000D02*
X198900000Y-80010000D01*
X198900000Y-79248000D02*
X198900000Y-89408000D01*
X198900000Y-89408000D02*
X198900000Y-98552000D01*
X198900000Y-98552000D02*
X198900000Y-108712000D01*
X198900000Y-108712000D02*
X198900000Y-117856000D01*
X198900000Y-117856000D02*
X198900000Y-128016000D01*
X198900000Y-128016000D02*
X198900000Y-140000000D01*
X198900000Y-64016000D02*
X198900000Y-71120000D01*
D20*
X197114000Y-62230000D02*
X198900000Y-64016000D01*
X168910000Y-62230000D02*
X197114000Y-62230000D01*
M02*
