G04 #@! TF.GenerationSoftware,KiCad,Pcbnew,(5.1.6)-1*
G04 #@! TF.CreationDate,2020-06-14T17:11:32+02:00*
G04 #@! TF.ProjectId,fuseboardv4,66757365-626f-4617-9264-76342e6b6963,rev?*
G04 #@! TF.SameCoordinates,Original*
G04 #@! TF.FileFunction,Legend,Bot*
G04 #@! TF.FilePolarity,Positive*
%FSLAX46Y46*%
G04 Gerber Fmt 4.6, Leading zero omitted, Abs format (unit mm)*
G04 Created by KiCad (PCBNEW (5.1.6)-1) date 2020-06-14 17:11:32*
%MOMM*%
%LPD*%
G01*
G04 APERTURE LIST*
G04 #@! TA.AperFunction,Profile*
%ADD10C,0.150000*%
G04 #@! TD*
%ADD11C,0.150000*%
%ADD12C,0.127000*%
%ADD13C,0.120000*%
%ADD14C,0.100000*%
%ADD15C,0.152400*%
%ADD16C,0.254000*%
%ADD17C,0.168910*%
%ADD18C,0.094107*%
%ADD19C,0.120650*%
G04 APERTURE END LIST*
D10*
X87630000Y-147320000D02*
X205000000Y-147320000D01*
X205000000Y-54610000D02*
X87630000Y-54610000D01*
X87630000Y-54610000D02*
X87630000Y-147320000D01*
X205000000Y-54610000D02*
X205000000Y-147320000D01*
D11*
X190833000Y-79248000D02*
G75*
G03*
X190833000Y-79248000I-3000000J0D01*
G01*
X190833000Y-137160000D02*
G75*
G03*
X190833000Y-137160000I-3000000J0D01*
G01*
X190833000Y-98552000D02*
G75*
G03*
X190833000Y-98552000I-3000000J0D01*
G01*
X190833000Y-117856000D02*
G75*
G03*
X190833000Y-117856000I-3000000J0D01*
G01*
X135207000Y-79248000D02*
G75*
G03*
X135207000Y-79248000I-3000000J0D01*
G01*
X135207000Y-98552000D02*
G75*
G03*
X135207000Y-98552000I-3000000J0D01*
G01*
X135207000Y-117856000D02*
G75*
G03*
X135207000Y-117856000I-3000000J0D01*
G01*
X135207000Y-137160000D02*
G75*
G03*
X135207000Y-137160000I-3000000J0D01*
G01*
D12*
X120650000Y-147193000D02*
X199390000Y-147193000D01*
X199390000Y-147193000D02*
X199390000Y-69215000D01*
X120396000Y-147193000D02*
X120650000Y-147193000D01*
X120650000Y-69215000D02*
X199390000Y-69215000D01*
X120650000Y-147193000D02*
X120650000Y-69215000D01*
D11*
X95560000Y-66730000D02*
X102560000Y-66730000D01*
X102560000Y-66730000D02*
X102560000Y-57730000D01*
X102560000Y-57730000D02*
X95560000Y-57730000D01*
X95560000Y-57730000D02*
X95560000Y-66730000D01*
D13*
X145070000Y-62230000D02*
G75*
G03*
X145070000Y-62230000I-1680000J0D01*
G01*
X132080000Y-57330000D02*
X147200000Y-57330000D01*
X132080000Y-59230000D02*
X147200000Y-59230000D01*
X132080000Y-65830000D02*
X147200000Y-65830000D01*
X132080000Y-67790000D02*
X132080000Y-56670000D01*
X132080000Y-56670000D02*
X147200000Y-56670000D01*
X147200000Y-56670000D02*
X147200000Y-67790000D01*
X147200000Y-67790000D02*
X132080000Y-67790000D01*
X144665000Y-63299000D02*
X144618000Y-63253000D01*
X142356000Y-60991000D02*
X142321000Y-60956000D01*
X144460000Y-63505000D02*
X144425000Y-63469000D01*
X142163000Y-61207000D02*
X142116000Y-61161000D01*
X131840000Y-57270000D02*
X131840000Y-56430000D01*
X131840000Y-56430000D02*
X132440000Y-56430000D01*
X135918805Y-60549747D02*
G75*
G03*
X135206000Y-60695000I-28805J-1680253D01*
G01*
X134354574Y-61546958D02*
G75*
G03*
X134355000Y-62914000I1535426J-683042D01*
G01*
X135206958Y-63765426D02*
G75*
G03*
X136574000Y-63765000I683042J1535426D01*
G01*
X137425426Y-62913042D02*
G75*
G03*
X137425000Y-61546000I-1535426J683042D01*
G01*
X136573318Y-60695244D02*
G75*
G03*
X135890000Y-60550000I-683318J-1534756D01*
G01*
D14*
G36*
X105575100Y-76708000D02*
G01*
X109385100Y-76708000D01*
X109385100Y-78486000D01*
X105575100Y-78486000D01*
X105575100Y-76708000D01*
G37*
G36*
X105575100Y-80010000D02*
G01*
X109385100Y-80010000D01*
X109385100Y-81788000D01*
X105575100Y-81788000D01*
X105575100Y-80010000D01*
G37*
G36*
X109385100Y-76073000D02*
G01*
X110655100Y-76073000D01*
X110655100Y-77343000D01*
X109385100Y-77343000D01*
X109385100Y-76073000D01*
G37*
G36*
X109385100Y-81153000D02*
G01*
X110655100Y-81153000D01*
X110655100Y-82423000D01*
X109385100Y-82423000D01*
X109385100Y-81153000D01*
G37*
G36*
X104940100Y-76708000D02*
G01*
X105575100Y-76708000D01*
X105575100Y-81788000D01*
X104940100Y-81788000D01*
X104940100Y-76708000D01*
G37*
G36*
X104305100Y-76073000D02*
G01*
X105575100Y-76073000D01*
X105575100Y-77343000D01*
X104305100Y-77343000D01*
X104305100Y-76073000D01*
G37*
G36*
X104305100Y-81153000D02*
G01*
X105575100Y-81153000D01*
X105575100Y-82423000D01*
X104305100Y-82423000D01*
X104305100Y-81153000D01*
G37*
G36*
X90335100Y-76708000D02*
G01*
X94145100Y-76708000D01*
X94145100Y-78486000D01*
X90335100Y-78486000D01*
X90335100Y-76708000D01*
G37*
G36*
X90335100Y-80010000D02*
G01*
X94145100Y-80010000D01*
X94145100Y-81788000D01*
X90335100Y-81788000D01*
X90335100Y-80010000D01*
G37*
G36*
X94145100Y-76708000D02*
G01*
X94780100Y-76708000D01*
X94780100Y-81788000D01*
X94145100Y-81788000D01*
X94145100Y-76708000D01*
G37*
G36*
X94145100Y-76073000D02*
G01*
X95415100Y-76073000D01*
X95415100Y-77343000D01*
X94145100Y-77343000D01*
X94145100Y-76073000D01*
G37*
G36*
X94145100Y-81153000D02*
G01*
X95415100Y-81153000D01*
X95415100Y-82423000D01*
X94145100Y-82423000D01*
X94145100Y-81153000D01*
G37*
G36*
X89065100Y-76073000D02*
G01*
X90335100Y-76073000D01*
X90335100Y-77343000D01*
X89065100Y-77343000D01*
X89065100Y-76073000D01*
G37*
G36*
X89065100Y-81153000D02*
G01*
X90335100Y-81153000D01*
X90335100Y-82423000D01*
X89065100Y-82423000D01*
X89065100Y-81153000D01*
G37*
D15*
X99987100Y-79248000D02*
G75*
G03*
X99987100Y-79248000I-127000J0D01*
G01*
X103670100Y-77724000D02*
X103670100Y-81153000D01*
X96050100Y-80772000D02*
X96050100Y-77343000D01*
X96050100Y-80772000D02*
X103670100Y-77724000D01*
X95415100Y-76454000D02*
X104305100Y-76454000D01*
X95415100Y-82042000D02*
X104305100Y-82042000D01*
X111290100Y-77343000D02*
X110020100Y-77343000D01*
X111290100Y-81153000D02*
X111290100Y-77343000D01*
X110020100Y-81153000D02*
X111290100Y-81153000D01*
X109385100Y-75438000D02*
X109385100Y-76708000D01*
X109385100Y-75438000D02*
X105575100Y-75438000D01*
X105575100Y-76708000D02*
X105575100Y-75438000D01*
X109385100Y-81788000D02*
X109385100Y-83058000D01*
X105575100Y-83058000D02*
X109385100Y-83058000D01*
X105575100Y-81788000D02*
X105575100Y-83058000D01*
X103670100Y-77343000D02*
X104940100Y-77343000D01*
X103670100Y-77343000D02*
X103670100Y-77724000D01*
X104940100Y-81153000D02*
X103670100Y-81153000D01*
X96050100Y-77343000D02*
X94780100Y-77343000D01*
X96050100Y-81153000D02*
X96050100Y-80772000D01*
X94780100Y-81153000D02*
X96050100Y-81153000D01*
X94145100Y-75438000D02*
X94145100Y-76708000D01*
X94145100Y-75438000D02*
X90335100Y-75438000D01*
X90335100Y-76708000D02*
X90335100Y-75438000D01*
X94145100Y-81788000D02*
X94145100Y-83058000D01*
X90335100Y-83058000D02*
X94145100Y-83058000D01*
X90335100Y-81788000D02*
X90335100Y-83058000D01*
X88430100Y-77343000D02*
X89700100Y-77343000D01*
X88430100Y-77343000D02*
X88430100Y-81153000D01*
X89700100Y-81153000D02*
X88430100Y-81153000D01*
D14*
G36*
X105702100Y-96012000D02*
G01*
X109512100Y-96012000D01*
X109512100Y-97790000D01*
X105702100Y-97790000D01*
X105702100Y-96012000D01*
G37*
G36*
X105702100Y-99314000D02*
G01*
X109512100Y-99314000D01*
X109512100Y-101092000D01*
X105702100Y-101092000D01*
X105702100Y-99314000D01*
G37*
G36*
X109512100Y-95377000D02*
G01*
X110782100Y-95377000D01*
X110782100Y-96647000D01*
X109512100Y-96647000D01*
X109512100Y-95377000D01*
G37*
G36*
X109512100Y-100457000D02*
G01*
X110782100Y-100457000D01*
X110782100Y-101727000D01*
X109512100Y-101727000D01*
X109512100Y-100457000D01*
G37*
G36*
X105067100Y-96012000D02*
G01*
X105702100Y-96012000D01*
X105702100Y-101092000D01*
X105067100Y-101092000D01*
X105067100Y-96012000D01*
G37*
G36*
X104432100Y-95377000D02*
G01*
X105702100Y-95377000D01*
X105702100Y-96647000D01*
X104432100Y-96647000D01*
X104432100Y-95377000D01*
G37*
G36*
X104432100Y-100457000D02*
G01*
X105702100Y-100457000D01*
X105702100Y-101727000D01*
X104432100Y-101727000D01*
X104432100Y-100457000D01*
G37*
G36*
X90462100Y-96012000D02*
G01*
X94272100Y-96012000D01*
X94272100Y-97790000D01*
X90462100Y-97790000D01*
X90462100Y-96012000D01*
G37*
G36*
X90462100Y-99314000D02*
G01*
X94272100Y-99314000D01*
X94272100Y-101092000D01*
X90462100Y-101092000D01*
X90462100Y-99314000D01*
G37*
G36*
X94272100Y-96012000D02*
G01*
X94907100Y-96012000D01*
X94907100Y-101092000D01*
X94272100Y-101092000D01*
X94272100Y-96012000D01*
G37*
G36*
X94272100Y-95377000D02*
G01*
X95542100Y-95377000D01*
X95542100Y-96647000D01*
X94272100Y-96647000D01*
X94272100Y-95377000D01*
G37*
G36*
X94272100Y-100457000D02*
G01*
X95542100Y-100457000D01*
X95542100Y-101727000D01*
X94272100Y-101727000D01*
X94272100Y-100457000D01*
G37*
G36*
X89192100Y-95377000D02*
G01*
X90462100Y-95377000D01*
X90462100Y-96647000D01*
X89192100Y-96647000D01*
X89192100Y-95377000D01*
G37*
G36*
X89192100Y-100457000D02*
G01*
X90462100Y-100457000D01*
X90462100Y-101727000D01*
X89192100Y-101727000D01*
X89192100Y-100457000D01*
G37*
D15*
X100114100Y-98552000D02*
G75*
G03*
X100114100Y-98552000I-127000J0D01*
G01*
X103797100Y-97028000D02*
X103797100Y-100457000D01*
X96177100Y-100076000D02*
X96177100Y-96647000D01*
X96177100Y-100076000D02*
X103797100Y-97028000D01*
X95542100Y-95758000D02*
X104432100Y-95758000D01*
X95542100Y-101346000D02*
X104432100Y-101346000D01*
X111417100Y-96647000D02*
X110147100Y-96647000D01*
X111417100Y-100457000D02*
X111417100Y-96647000D01*
X110147100Y-100457000D02*
X111417100Y-100457000D01*
X109512100Y-94742000D02*
X109512100Y-96012000D01*
X109512100Y-94742000D02*
X105702100Y-94742000D01*
X105702100Y-96012000D02*
X105702100Y-94742000D01*
X109512100Y-101092000D02*
X109512100Y-102362000D01*
X105702100Y-102362000D02*
X109512100Y-102362000D01*
X105702100Y-101092000D02*
X105702100Y-102362000D01*
X103797100Y-96647000D02*
X105067100Y-96647000D01*
X103797100Y-96647000D02*
X103797100Y-97028000D01*
X105067100Y-100457000D02*
X103797100Y-100457000D01*
X96177100Y-96647000D02*
X94907100Y-96647000D01*
X96177100Y-100457000D02*
X96177100Y-100076000D01*
X94907100Y-100457000D02*
X96177100Y-100457000D01*
X94272100Y-94742000D02*
X94272100Y-96012000D01*
X94272100Y-94742000D02*
X90462100Y-94742000D01*
X90462100Y-96012000D02*
X90462100Y-94742000D01*
X94272100Y-101092000D02*
X94272100Y-102362000D01*
X90462100Y-102362000D02*
X94272100Y-102362000D01*
X90462100Y-101092000D02*
X90462100Y-102362000D01*
X88557100Y-96647000D02*
X89827100Y-96647000D01*
X88557100Y-96647000D02*
X88557100Y-100457000D01*
X89827100Y-100457000D02*
X88557100Y-100457000D01*
D14*
G36*
X105702100Y-115316000D02*
G01*
X109512100Y-115316000D01*
X109512100Y-117094000D01*
X105702100Y-117094000D01*
X105702100Y-115316000D01*
G37*
G36*
X105702100Y-118618000D02*
G01*
X109512100Y-118618000D01*
X109512100Y-120396000D01*
X105702100Y-120396000D01*
X105702100Y-118618000D01*
G37*
G36*
X109512100Y-114681000D02*
G01*
X110782100Y-114681000D01*
X110782100Y-115951000D01*
X109512100Y-115951000D01*
X109512100Y-114681000D01*
G37*
G36*
X109512100Y-119761000D02*
G01*
X110782100Y-119761000D01*
X110782100Y-121031000D01*
X109512100Y-121031000D01*
X109512100Y-119761000D01*
G37*
G36*
X105067100Y-115316000D02*
G01*
X105702100Y-115316000D01*
X105702100Y-120396000D01*
X105067100Y-120396000D01*
X105067100Y-115316000D01*
G37*
G36*
X104432100Y-114681000D02*
G01*
X105702100Y-114681000D01*
X105702100Y-115951000D01*
X104432100Y-115951000D01*
X104432100Y-114681000D01*
G37*
G36*
X104432100Y-119761000D02*
G01*
X105702100Y-119761000D01*
X105702100Y-121031000D01*
X104432100Y-121031000D01*
X104432100Y-119761000D01*
G37*
G36*
X90462100Y-115316000D02*
G01*
X94272100Y-115316000D01*
X94272100Y-117094000D01*
X90462100Y-117094000D01*
X90462100Y-115316000D01*
G37*
G36*
X90462100Y-118618000D02*
G01*
X94272100Y-118618000D01*
X94272100Y-120396000D01*
X90462100Y-120396000D01*
X90462100Y-118618000D01*
G37*
G36*
X94272100Y-115316000D02*
G01*
X94907100Y-115316000D01*
X94907100Y-120396000D01*
X94272100Y-120396000D01*
X94272100Y-115316000D01*
G37*
G36*
X94272100Y-114681000D02*
G01*
X95542100Y-114681000D01*
X95542100Y-115951000D01*
X94272100Y-115951000D01*
X94272100Y-114681000D01*
G37*
G36*
X94272100Y-119761000D02*
G01*
X95542100Y-119761000D01*
X95542100Y-121031000D01*
X94272100Y-121031000D01*
X94272100Y-119761000D01*
G37*
G36*
X89192100Y-114681000D02*
G01*
X90462100Y-114681000D01*
X90462100Y-115951000D01*
X89192100Y-115951000D01*
X89192100Y-114681000D01*
G37*
G36*
X89192100Y-119761000D02*
G01*
X90462100Y-119761000D01*
X90462100Y-121031000D01*
X89192100Y-121031000D01*
X89192100Y-119761000D01*
G37*
D15*
X100114100Y-117856000D02*
G75*
G03*
X100114100Y-117856000I-127000J0D01*
G01*
X103797100Y-116332000D02*
X103797100Y-119761000D01*
X96177100Y-119380000D02*
X96177100Y-115951000D01*
X96177100Y-119380000D02*
X103797100Y-116332000D01*
X95542100Y-115062000D02*
X104432100Y-115062000D01*
X95542100Y-120650000D02*
X104432100Y-120650000D01*
X111417100Y-115951000D02*
X110147100Y-115951000D01*
X111417100Y-119761000D02*
X111417100Y-115951000D01*
X110147100Y-119761000D02*
X111417100Y-119761000D01*
X109512100Y-114046000D02*
X109512100Y-115316000D01*
X109512100Y-114046000D02*
X105702100Y-114046000D01*
X105702100Y-115316000D02*
X105702100Y-114046000D01*
X109512100Y-120396000D02*
X109512100Y-121666000D01*
X105702100Y-121666000D02*
X109512100Y-121666000D01*
X105702100Y-120396000D02*
X105702100Y-121666000D01*
X103797100Y-115951000D02*
X105067100Y-115951000D01*
X103797100Y-115951000D02*
X103797100Y-116332000D01*
X105067100Y-119761000D02*
X103797100Y-119761000D01*
X96177100Y-115951000D02*
X94907100Y-115951000D01*
X96177100Y-119761000D02*
X96177100Y-119380000D01*
X94907100Y-119761000D02*
X96177100Y-119761000D01*
X94272100Y-114046000D02*
X94272100Y-115316000D01*
X94272100Y-114046000D02*
X90462100Y-114046000D01*
X90462100Y-115316000D02*
X90462100Y-114046000D01*
X94272100Y-120396000D02*
X94272100Y-121666000D01*
X90462100Y-121666000D02*
X94272100Y-121666000D01*
X90462100Y-120396000D02*
X90462100Y-121666000D01*
X88557100Y-115951000D02*
X89827100Y-115951000D01*
X88557100Y-115951000D02*
X88557100Y-119761000D01*
X89827100Y-119761000D02*
X88557100Y-119761000D01*
D14*
G36*
X105702100Y-134810500D02*
G01*
X109512100Y-134810500D01*
X109512100Y-136588500D01*
X105702100Y-136588500D01*
X105702100Y-134810500D01*
G37*
G36*
X105702100Y-138112500D02*
G01*
X109512100Y-138112500D01*
X109512100Y-139890500D01*
X105702100Y-139890500D01*
X105702100Y-138112500D01*
G37*
G36*
X109512100Y-134175500D02*
G01*
X110782100Y-134175500D01*
X110782100Y-135445500D01*
X109512100Y-135445500D01*
X109512100Y-134175500D01*
G37*
G36*
X109512100Y-139255500D02*
G01*
X110782100Y-139255500D01*
X110782100Y-140525500D01*
X109512100Y-140525500D01*
X109512100Y-139255500D01*
G37*
G36*
X105067100Y-134810500D02*
G01*
X105702100Y-134810500D01*
X105702100Y-139890500D01*
X105067100Y-139890500D01*
X105067100Y-134810500D01*
G37*
G36*
X104432100Y-134175500D02*
G01*
X105702100Y-134175500D01*
X105702100Y-135445500D01*
X104432100Y-135445500D01*
X104432100Y-134175500D01*
G37*
G36*
X104432100Y-139255500D02*
G01*
X105702100Y-139255500D01*
X105702100Y-140525500D01*
X104432100Y-140525500D01*
X104432100Y-139255500D01*
G37*
G36*
X90462100Y-134810500D02*
G01*
X94272100Y-134810500D01*
X94272100Y-136588500D01*
X90462100Y-136588500D01*
X90462100Y-134810500D01*
G37*
G36*
X90462100Y-138112500D02*
G01*
X94272100Y-138112500D01*
X94272100Y-139890500D01*
X90462100Y-139890500D01*
X90462100Y-138112500D01*
G37*
G36*
X94272100Y-134810500D02*
G01*
X94907100Y-134810500D01*
X94907100Y-139890500D01*
X94272100Y-139890500D01*
X94272100Y-134810500D01*
G37*
G36*
X94272100Y-134175500D02*
G01*
X95542100Y-134175500D01*
X95542100Y-135445500D01*
X94272100Y-135445500D01*
X94272100Y-134175500D01*
G37*
G36*
X94272100Y-139255500D02*
G01*
X95542100Y-139255500D01*
X95542100Y-140525500D01*
X94272100Y-140525500D01*
X94272100Y-139255500D01*
G37*
G36*
X89192100Y-134175500D02*
G01*
X90462100Y-134175500D01*
X90462100Y-135445500D01*
X89192100Y-135445500D01*
X89192100Y-134175500D01*
G37*
G36*
X89192100Y-139255500D02*
G01*
X90462100Y-139255500D01*
X90462100Y-140525500D01*
X89192100Y-140525500D01*
X89192100Y-139255500D01*
G37*
D15*
X100114100Y-137350500D02*
G75*
G03*
X100114100Y-137350500I-127000J0D01*
G01*
X103797100Y-135826500D02*
X103797100Y-139255500D01*
X96177100Y-138874500D02*
X96177100Y-135445500D01*
X96177100Y-138874500D02*
X103797100Y-135826500D01*
X95542100Y-134556500D02*
X104432100Y-134556500D01*
X95542100Y-140144500D02*
X104432100Y-140144500D01*
X111417100Y-135445500D02*
X110147100Y-135445500D01*
X111417100Y-139255500D02*
X111417100Y-135445500D01*
X110147100Y-139255500D02*
X111417100Y-139255500D01*
X109512100Y-133540500D02*
X109512100Y-134810500D01*
X109512100Y-133540500D02*
X105702100Y-133540500D01*
X105702100Y-134810500D02*
X105702100Y-133540500D01*
X109512100Y-139890500D02*
X109512100Y-141160500D01*
X105702100Y-141160500D02*
X109512100Y-141160500D01*
X105702100Y-139890500D02*
X105702100Y-141160500D01*
X103797100Y-135445500D02*
X105067100Y-135445500D01*
X103797100Y-135445500D02*
X103797100Y-135826500D01*
X105067100Y-139255500D02*
X103797100Y-139255500D01*
X96177100Y-135445500D02*
X94907100Y-135445500D01*
X96177100Y-139255500D02*
X96177100Y-138874500D01*
X94907100Y-139255500D02*
X96177100Y-139255500D01*
X94272100Y-133540500D02*
X94272100Y-134810500D01*
X94272100Y-133540500D02*
X90462100Y-133540500D01*
X90462100Y-134810500D02*
X90462100Y-133540500D01*
X94272100Y-139890500D02*
X94272100Y-141160500D01*
X90462100Y-141160500D02*
X94272100Y-141160500D01*
X90462100Y-139890500D02*
X90462100Y-141160500D01*
X88557100Y-135445500D02*
X89827100Y-135445500D01*
X88557100Y-135445500D02*
X88557100Y-139255500D01*
X89827100Y-139255500D02*
X88557100Y-139255500D01*
D14*
G36*
X118872000Y-82169000D02*
G01*
X118872000Y-81788000D01*
X119380000Y-81788000D01*
X119380000Y-82169000D01*
X118872000Y-82169000D01*
G37*
G36*
X118872000Y-76708000D02*
G01*
X118872000Y-76327000D01*
X119380000Y-76327000D01*
X119380000Y-76708000D01*
X118872000Y-76708000D01*
G37*
D15*
X118364000Y-76708000D02*
X119888000Y-76708000D01*
X118110000Y-76962000D02*
X118110000Y-77343000D01*
X120142000Y-76962000D02*
X120142000Y-77343000D01*
X118237000Y-77470000D02*
X118237000Y-81026000D01*
X118237000Y-77470000D02*
X118110000Y-77343000D01*
X120015000Y-77470000D02*
X120015000Y-81026000D01*
X120015000Y-77470000D02*
X120142000Y-77343000D01*
X118237000Y-81026000D02*
X118110000Y-81153000D01*
X118110000Y-81534000D02*
X118110000Y-81153000D01*
X120015000Y-81026000D02*
X120142000Y-81153000D01*
X120142000Y-81534000D02*
X120142000Y-81153000D01*
X118364000Y-81788000D02*
X119888000Y-81788000D01*
X119888000Y-76708000D02*
G75*
G02*
X120142000Y-76962000I0J-254000D01*
G01*
X118364000Y-76708000D02*
G75*
G03*
X118110000Y-76962000I0J-254000D01*
G01*
X118110000Y-81534000D02*
G75*
G03*
X118364000Y-81788000I254000J0D01*
G01*
X120142000Y-81534000D02*
G75*
G02*
X119888000Y-81788000I-254000J0D01*
G01*
D14*
G36*
X119126000Y-101473000D02*
G01*
X119126000Y-101092000D01*
X119634000Y-101092000D01*
X119634000Y-101473000D01*
X119126000Y-101473000D01*
G37*
G36*
X119126000Y-96012000D02*
G01*
X119126000Y-95631000D01*
X119634000Y-95631000D01*
X119634000Y-96012000D01*
X119126000Y-96012000D01*
G37*
D15*
X118618000Y-96012000D02*
X120142000Y-96012000D01*
X118364000Y-96266000D02*
X118364000Y-96647000D01*
X120396000Y-96266000D02*
X120396000Y-96647000D01*
X118491000Y-96774000D02*
X118491000Y-100330000D01*
X118491000Y-96774000D02*
X118364000Y-96647000D01*
X120269000Y-96774000D02*
X120269000Y-100330000D01*
X120269000Y-96774000D02*
X120396000Y-96647000D01*
X118491000Y-100330000D02*
X118364000Y-100457000D01*
X118364000Y-100838000D02*
X118364000Y-100457000D01*
X120269000Y-100330000D02*
X120396000Y-100457000D01*
X120396000Y-100838000D02*
X120396000Y-100457000D01*
X118618000Y-101092000D02*
X120142000Y-101092000D01*
X120142000Y-96012000D02*
G75*
G02*
X120396000Y-96266000I0J-254000D01*
G01*
X118618000Y-96012000D02*
G75*
G03*
X118364000Y-96266000I0J-254000D01*
G01*
X118364000Y-100838000D02*
G75*
G03*
X118618000Y-101092000I254000J0D01*
G01*
X120396000Y-100838000D02*
G75*
G02*
X120142000Y-101092000I-254000J0D01*
G01*
D14*
G36*
X119126000Y-120777000D02*
G01*
X119126000Y-120396000D01*
X119634000Y-120396000D01*
X119634000Y-120777000D01*
X119126000Y-120777000D01*
G37*
G36*
X119126000Y-115316000D02*
G01*
X119126000Y-114935000D01*
X119634000Y-114935000D01*
X119634000Y-115316000D01*
X119126000Y-115316000D01*
G37*
D15*
X118618000Y-115316000D02*
X120142000Y-115316000D01*
X118364000Y-115570000D02*
X118364000Y-115951000D01*
X120396000Y-115570000D02*
X120396000Y-115951000D01*
X118491000Y-116078000D02*
X118491000Y-119634000D01*
X118491000Y-116078000D02*
X118364000Y-115951000D01*
X120269000Y-116078000D02*
X120269000Y-119634000D01*
X120269000Y-116078000D02*
X120396000Y-115951000D01*
X118491000Y-119634000D02*
X118364000Y-119761000D01*
X118364000Y-120142000D02*
X118364000Y-119761000D01*
X120269000Y-119634000D02*
X120396000Y-119761000D01*
X120396000Y-120142000D02*
X120396000Y-119761000D01*
X118618000Y-120396000D02*
X120142000Y-120396000D01*
X120142000Y-115316000D02*
G75*
G02*
X120396000Y-115570000I0J-254000D01*
G01*
X118618000Y-115316000D02*
G75*
G03*
X118364000Y-115570000I0J-254000D01*
G01*
X118364000Y-120142000D02*
G75*
G03*
X118618000Y-120396000I254000J0D01*
G01*
X120396000Y-120142000D02*
G75*
G02*
X120142000Y-120396000I-254000J0D01*
G01*
D14*
G36*
X119126000Y-140271500D02*
G01*
X119126000Y-139890500D01*
X119634000Y-139890500D01*
X119634000Y-140271500D01*
X119126000Y-140271500D01*
G37*
G36*
X119126000Y-134810500D02*
G01*
X119126000Y-134429500D01*
X119634000Y-134429500D01*
X119634000Y-134810500D01*
X119126000Y-134810500D01*
G37*
D15*
X118618000Y-134810500D02*
X120142000Y-134810500D01*
X118364000Y-135064500D02*
X118364000Y-135445500D01*
X120396000Y-135064500D02*
X120396000Y-135445500D01*
X118491000Y-135572500D02*
X118491000Y-139128500D01*
X118491000Y-135572500D02*
X118364000Y-135445500D01*
X120269000Y-135572500D02*
X120269000Y-139128500D01*
X120269000Y-135572500D02*
X120396000Y-135445500D01*
X118491000Y-139128500D02*
X118364000Y-139255500D01*
X118364000Y-139636500D02*
X118364000Y-139255500D01*
X120269000Y-139128500D02*
X120396000Y-139255500D01*
X120396000Y-139636500D02*
X120396000Y-139255500D01*
X118618000Y-139890500D02*
X120142000Y-139890500D01*
X120142000Y-134810500D02*
G75*
G02*
X120396000Y-135064500I0J-254000D01*
G01*
X118618000Y-134810500D02*
G75*
G03*
X118364000Y-135064500I0J-254000D01*
G01*
X118364000Y-139636500D02*
G75*
G03*
X118618000Y-139890500I254000J0D01*
G01*
X120396000Y-139636500D02*
G75*
G02*
X120142000Y-139890500I-254000J0D01*
G01*
D16*
X113576100Y-73406000D02*
G75*
G03*
X111811800Y-74429800I-56J-2032000D01*
G01*
X115127300Y-74125400D02*
G75*
G03*
X113576100Y-73406000I-1551163J-1312600D01*
G01*
X113576100Y-77470000D02*
G75*
G02*
X111783200Y-76394200I60J2032000D01*
G01*
X115137100Y-76738900D02*
G75*
G02*
X113576100Y-77470000I-1560988J1300900D01*
G01*
D15*
X113576100Y-73914000D02*
G75*
G03*
X112373100Y-74502400I8J-1524000D01*
G01*
X114779100Y-74502400D02*
G75*
G03*
X113576100Y-73914000I-1203008J-935600D01*
G01*
X113576100Y-76962000D02*
G75*
G02*
X112356900Y-76352400I0J1524000D01*
G01*
X114816200Y-76323801D02*
G75*
G02*
X113576100Y-76962000I-1240134J885801D01*
G01*
D16*
X113576100Y-92710000D02*
G75*
G03*
X111811800Y-93733800I-56J-2032000D01*
G01*
X115127300Y-93429400D02*
G75*
G03*
X113576100Y-92710000I-1551163J-1312600D01*
G01*
X113576100Y-96774000D02*
G75*
G02*
X111783200Y-95698200I60J2032000D01*
G01*
X115137100Y-96042900D02*
G75*
G02*
X113576100Y-96774000I-1560988J1300900D01*
G01*
D15*
X113576100Y-93218000D02*
G75*
G03*
X112373100Y-93806400I8J-1524000D01*
G01*
X114779100Y-93806400D02*
G75*
G03*
X113576100Y-93218000I-1203008J-935600D01*
G01*
X113576100Y-96266000D02*
G75*
G02*
X112356900Y-95656400I0J1524000D01*
G01*
X114816200Y-95627801D02*
G75*
G02*
X113576100Y-96266000I-1240134J885801D01*
G01*
D16*
X113576100Y-112014000D02*
G75*
G03*
X111811800Y-113037800I-56J-2032000D01*
G01*
X115127300Y-112733400D02*
G75*
G03*
X113576100Y-112014000I-1551163J-1312600D01*
G01*
X113576100Y-116078000D02*
G75*
G02*
X111783200Y-115002200I60J2032000D01*
G01*
X115137100Y-115346900D02*
G75*
G02*
X113576100Y-116078000I-1560988J1300900D01*
G01*
D15*
X113576100Y-112522000D02*
G75*
G03*
X112373100Y-113110400I8J-1524000D01*
G01*
X114779100Y-113110400D02*
G75*
G03*
X113576100Y-112522000I-1203008J-935600D01*
G01*
X113576100Y-115570000D02*
G75*
G02*
X112356900Y-114960400I0J1524000D01*
G01*
X114816200Y-114931801D02*
G75*
G02*
X113576100Y-115570000I-1240134J885801D01*
G01*
D16*
X113576100Y-131508500D02*
G75*
G03*
X111811800Y-132532300I-56J-2032000D01*
G01*
X115127300Y-132227900D02*
G75*
G03*
X113576100Y-131508500I-1551163J-1312600D01*
G01*
X113576100Y-135572500D02*
G75*
G02*
X111783200Y-134496700I60J2032000D01*
G01*
X115137100Y-134841400D02*
G75*
G02*
X113576100Y-135572500I-1560988J1300900D01*
G01*
D15*
X113576100Y-132016500D02*
G75*
G03*
X112373100Y-132604900I8J-1524000D01*
G01*
X114779100Y-132604900D02*
G75*
G03*
X113576100Y-132016500I-1203008J-935600D01*
G01*
X113576100Y-135064500D02*
G75*
G02*
X112356900Y-134454900I0J1524000D01*
G01*
X114816200Y-134426301D02*
G75*
G02*
X113576100Y-135064500I-1240134J885801D01*
G01*
D11*
X142520952Y-68242380D02*
X142520952Y-68956666D01*
X142568571Y-69099523D01*
X142663809Y-69194761D01*
X142806666Y-69242380D01*
X142901904Y-69242380D01*
X142187619Y-68575714D02*
X141806666Y-68575714D01*
X142044761Y-68242380D02*
X142044761Y-69099523D01*
X141997142Y-69194761D01*
X141901904Y-69242380D01*
X141806666Y-69242380D01*
X141330476Y-69242380D02*
X141425714Y-69194761D01*
X141473333Y-69147142D01*
X141520952Y-69051904D01*
X141520952Y-68766190D01*
X141473333Y-68670952D01*
X141425714Y-68623333D01*
X141330476Y-68575714D01*
X141187619Y-68575714D01*
X141092380Y-68623333D01*
X141044761Y-68670952D01*
X140997142Y-68766190D01*
X140997142Y-69051904D01*
X141044761Y-69147142D01*
X141092380Y-69194761D01*
X141187619Y-69242380D01*
X141330476Y-69242380D01*
X140568571Y-68575714D02*
X140568571Y-69575714D01*
X140568571Y-68623333D02*
X140473333Y-68575714D01*
X140282857Y-68575714D01*
X140187619Y-68623333D01*
X140140000Y-68670952D01*
X140092380Y-68766190D01*
X140092380Y-69051904D01*
X140140000Y-69147142D01*
X140187619Y-69194761D01*
X140282857Y-69242380D01*
X140473333Y-69242380D01*
X140568571Y-69194761D01*
X139663809Y-69242380D02*
X139663809Y-68242380D01*
X139282857Y-68242380D01*
X139187619Y-68290000D01*
X139140000Y-68337619D01*
X139092380Y-68432857D01*
X139092380Y-68575714D01*
X139140000Y-68670952D01*
X139187619Y-68718571D01*
X139282857Y-68766190D01*
X139663809Y-68766190D01*
X138520952Y-69242380D02*
X138616190Y-69194761D01*
X138663809Y-69147142D01*
X138711428Y-69051904D01*
X138711428Y-68766190D01*
X138663809Y-68670952D01*
X138616190Y-68623333D01*
X138520952Y-68575714D01*
X138378095Y-68575714D01*
X138282857Y-68623333D01*
X138235238Y-68670952D01*
X138187619Y-68766190D01*
X138187619Y-69051904D01*
X138235238Y-69147142D01*
X138282857Y-69194761D01*
X138378095Y-69242380D01*
X138520952Y-69242380D01*
X137806666Y-69194761D02*
X137711428Y-69242380D01*
X137520952Y-69242380D01*
X137425714Y-69194761D01*
X137378095Y-69099523D01*
X137378095Y-69051904D01*
X137425714Y-68956666D01*
X137520952Y-68909047D01*
X137663809Y-68909047D01*
X137759047Y-68861428D01*
X137806666Y-68766190D01*
X137806666Y-68718571D01*
X137759047Y-68623333D01*
X137663809Y-68575714D01*
X137520952Y-68575714D01*
X137425714Y-68623333D01*
X136425714Y-69242380D02*
X136997142Y-69242380D01*
X136711428Y-69242380D02*
X136711428Y-68242380D01*
X136806666Y-68385238D01*
X136901904Y-68480476D01*
X136997142Y-68528095D01*
D17*
X98920300Y-85158008D02*
X98920300Y-85721041D01*
X98035533Y-85721041D02*
X99724633Y-85721041D01*
X99724633Y-84916708D01*
X99724633Y-83468908D02*
X99724633Y-84273241D01*
X98920300Y-84353675D01*
X99000733Y-84273241D01*
X99081166Y-84112375D01*
X99081166Y-83710208D01*
X99000733Y-83549341D01*
X98920300Y-83468908D01*
X98759433Y-83388475D01*
X98357266Y-83388475D01*
X98196400Y-83468908D01*
X98115966Y-83549341D01*
X98035533Y-83710208D01*
X98035533Y-84112375D01*
X98115966Y-84273241D01*
X98196400Y-84353675D01*
X99047300Y-104462008D02*
X99047300Y-105025041D01*
X98162533Y-105025041D02*
X99851633Y-105025041D01*
X99851633Y-104220708D01*
X99851633Y-102853341D02*
X99851633Y-103175075D01*
X99771200Y-103335941D01*
X99690766Y-103416375D01*
X99449466Y-103577241D01*
X99127733Y-103657675D01*
X98484266Y-103657675D01*
X98323400Y-103577241D01*
X98242966Y-103496808D01*
X98162533Y-103335941D01*
X98162533Y-103014208D01*
X98242966Y-102853341D01*
X98323400Y-102772908D01*
X98484266Y-102692475D01*
X98886433Y-102692475D01*
X99047300Y-102772908D01*
X99127733Y-102853341D01*
X99208166Y-103014208D01*
X99208166Y-103335941D01*
X99127733Y-103496808D01*
X99047300Y-103577241D01*
X98886433Y-103657675D01*
X99047300Y-123766008D02*
X99047300Y-124329041D01*
X98162533Y-124329041D02*
X99851633Y-124329041D01*
X99851633Y-123524708D01*
X99851633Y-123042108D02*
X99851633Y-121916041D01*
X98162533Y-122639941D01*
X99047300Y-143260508D02*
X99047300Y-143823541D01*
X98162533Y-143823541D02*
X99851633Y-143823541D01*
X99851633Y-143019208D01*
X99127733Y-142134441D02*
X99208166Y-142295308D01*
X99288600Y-142375741D01*
X99449466Y-142456175D01*
X99529900Y-142456175D01*
X99690766Y-142375741D01*
X99771200Y-142295308D01*
X99851633Y-142134441D01*
X99851633Y-141812708D01*
X99771200Y-141651841D01*
X99690766Y-141571408D01*
X99529900Y-141490975D01*
X99449466Y-141490975D01*
X99288600Y-141571408D01*
X99208166Y-141651841D01*
X99127733Y-141812708D01*
X99127733Y-142134441D01*
X99047300Y-142295308D01*
X98966866Y-142375741D01*
X98806000Y-142456175D01*
X98484266Y-142456175D01*
X98323400Y-142375741D01*
X98242966Y-142295308D01*
X98162533Y-142134441D01*
X98162533Y-141812708D01*
X98242966Y-141651841D01*
X98323400Y-141571408D01*
X98484266Y-141490975D01*
X98806000Y-141490975D01*
X98966866Y-141571408D01*
X99047300Y-141651841D01*
X99127733Y-141812708D01*
D18*
X121558078Y-82684257D02*
X121871768Y-82236128D01*
X122095832Y-82684257D02*
X122095832Y-81743187D01*
X121737329Y-81743187D01*
X121647703Y-81788000D01*
X121602890Y-81832812D01*
X121558078Y-81922438D01*
X121558078Y-82056877D01*
X121602890Y-82146502D01*
X121647703Y-82191315D01*
X121737329Y-82236128D01*
X122095832Y-82236128D01*
X120706633Y-81743187D02*
X121154762Y-81743187D01*
X121199575Y-82191315D01*
X121154762Y-82146502D01*
X121065136Y-82101690D01*
X120841072Y-82101690D01*
X120751446Y-82146502D01*
X120706633Y-82191315D01*
X120661820Y-82280941D01*
X120661820Y-82505005D01*
X120706633Y-82594631D01*
X120751446Y-82639444D01*
X120841072Y-82684257D01*
X121065136Y-82684257D01*
X121154762Y-82639444D01*
X121199575Y-82594631D01*
X121812078Y-101988257D02*
X122125768Y-101540128D01*
X122349832Y-101988257D02*
X122349832Y-101047187D01*
X121991329Y-101047187D01*
X121901703Y-101092000D01*
X121856890Y-101136812D01*
X121812078Y-101226438D01*
X121812078Y-101360877D01*
X121856890Y-101450502D01*
X121901703Y-101495315D01*
X121991329Y-101540128D01*
X122349832Y-101540128D01*
X121005446Y-101047187D02*
X121184698Y-101047187D01*
X121274323Y-101092000D01*
X121319136Y-101136812D01*
X121408762Y-101271251D01*
X121453575Y-101450502D01*
X121453575Y-101809005D01*
X121408762Y-101898631D01*
X121363949Y-101943444D01*
X121274323Y-101988257D01*
X121095072Y-101988257D01*
X121005446Y-101943444D01*
X120960633Y-101898631D01*
X120915820Y-101809005D01*
X120915820Y-101584941D01*
X120960633Y-101495315D01*
X121005446Y-101450502D01*
X121095072Y-101405690D01*
X121274323Y-101405690D01*
X121363949Y-101450502D01*
X121408762Y-101495315D01*
X121453575Y-101584941D01*
X121812078Y-121292257D02*
X122125768Y-120844128D01*
X122349832Y-121292257D02*
X122349832Y-120351187D01*
X121991329Y-120351187D01*
X121901703Y-120396000D01*
X121856890Y-120440812D01*
X121812078Y-120530438D01*
X121812078Y-120664877D01*
X121856890Y-120754502D01*
X121901703Y-120799315D01*
X121991329Y-120844128D01*
X122349832Y-120844128D01*
X121498388Y-120351187D02*
X120871008Y-120351187D01*
X121274323Y-121292257D01*
X121812078Y-140786757D02*
X122125768Y-140338628D01*
X122349832Y-140786757D02*
X122349832Y-139845687D01*
X121991329Y-139845687D01*
X121901703Y-139890500D01*
X121856890Y-139935312D01*
X121812078Y-140024938D01*
X121812078Y-140159377D01*
X121856890Y-140249002D01*
X121901703Y-140293815D01*
X121991329Y-140338628D01*
X122349832Y-140338628D01*
X121274323Y-140249002D02*
X121363949Y-140204190D01*
X121408762Y-140159377D01*
X121453575Y-140069751D01*
X121453575Y-140024938D01*
X121408762Y-139935312D01*
X121363949Y-139890500D01*
X121274323Y-139845687D01*
X121095072Y-139845687D01*
X121005446Y-139890500D01*
X120960633Y-139935312D01*
X120915820Y-140024938D01*
X120915820Y-140069751D01*
X120960633Y-140159377D01*
X121005446Y-140204190D01*
X121095072Y-140249002D01*
X121274323Y-140249002D01*
X121363949Y-140293815D01*
X121408762Y-140338628D01*
X121453575Y-140428254D01*
X121453575Y-140607505D01*
X121408762Y-140697131D01*
X121363949Y-140741944D01*
X121274323Y-140786757D01*
X121095072Y-140786757D01*
X121005446Y-140741944D01*
X120960633Y-140697131D01*
X120915820Y-140607505D01*
X120915820Y-140428254D01*
X120960633Y-140338628D01*
X121005446Y-140293815D01*
X121095072Y-140249002D01*
D19*
X114248791Y-77920547D02*
X114823315Y-77920547D01*
X114823315Y-76714047D01*
X113846625Y-77288571D02*
X113444458Y-77288571D01*
X113272101Y-77920547D02*
X113846625Y-77920547D01*
X113846625Y-76714047D01*
X113272101Y-76714047D01*
X112755029Y-77920547D02*
X112755029Y-76714047D01*
X112467767Y-76714047D01*
X112295410Y-76771500D01*
X112180506Y-76886404D01*
X112123053Y-77001309D01*
X112065601Y-77231119D01*
X112065601Y-77403476D01*
X112123053Y-77633285D01*
X112180506Y-77748190D01*
X112295410Y-77863095D01*
X112467767Y-77920547D01*
X112755029Y-77920547D01*
X110974006Y-76714047D02*
X111548529Y-76714047D01*
X111605982Y-77288571D01*
X111548529Y-77231119D01*
X111433625Y-77173666D01*
X111146363Y-77173666D01*
X111031458Y-77231119D01*
X110974006Y-77288571D01*
X110916553Y-77403476D01*
X110916553Y-77690738D01*
X110974006Y-77805642D01*
X111031458Y-77863095D01*
X111146363Y-77920547D01*
X111433625Y-77920547D01*
X111548529Y-77863095D01*
X111605982Y-77805642D01*
X115538552Y-94182791D02*
X115538552Y-94757315D01*
X116745052Y-94757315D01*
X116170528Y-93780625D02*
X116170528Y-93378458D01*
X115538552Y-93206101D02*
X115538552Y-93780625D01*
X116745052Y-93780625D01*
X116745052Y-93206101D01*
X115538552Y-92689029D02*
X116745052Y-92689029D01*
X116745052Y-92401767D01*
X116687600Y-92229410D01*
X116572695Y-92114506D01*
X116457790Y-92057053D01*
X116227980Y-91999601D01*
X116055623Y-91999601D01*
X115825814Y-92057053D01*
X115710909Y-92114506D01*
X115596004Y-92229410D01*
X115538552Y-92401767D01*
X115538552Y-92689029D01*
X116745052Y-90965458D02*
X116745052Y-91195267D01*
X116687600Y-91310172D01*
X116630147Y-91367625D01*
X116457790Y-91482529D01*
X116227980Y-91539982D01*
X115768361Y-91539982D01*
X115653457Y-91482529D01*
X115596004Y-91425077D01*
X115538552Y-91310172D01*
X115538552Y-91080363D01*
X115596004Y-90965458D01*
X115653457Y-90908006D01*
X115768361Y-90850553D01*
X116055623Y-90850553D01*
X116170528Y-90908006D01*
X116227980Y-90965458D01*
X116285433Y-91080363D01*
X116285433Y-91310172D01*
X116227980Y-91425077D01*
X116170528Y-91482529D01*
X116055623Y-91539982D01*
X115538552Y-113486791D02*
X115538552Y-114061315D01*
X116745052Y-114061315D01*
X116170528Y-113084625D02*
X116170528Y-112682458D01*
X115538552Y-112510101D02*
X115538552Y-113084625D01*
X116745052Y-113084625D01*
X116745052Y-112510101D01*
X115538552Y-111993029D02*
X116745052Y-111993029D01*
X116745052Y-111705767D01*
X116687600Y-111533410D01*
X116572695Y-111418506D01*
X116457790Y-111361053D01*
X116227980Y-111303601D01*
X116055623Y-111303601D01*
X115825814Y-111361053D01*
X115710909Y-111418506D01*
X115596004Y-111533410D01*
X115538552Y-111705767D01*
X115538552Y-111993029D01*
X116745052Y-110901434D02*
X116745052Y-110097101D01*
X115538552Y-110614172D01*
X116630147Y-130281029D02*
X116630147Y-129706506D01*
X115423647Y-129706506D01*
X115998171Y-130683196D02*
X115998171Y-131085363D01*
X116630147Y-131257720D02*
X116630147Y-130683196D01*
X115423647Y-130683196D01*
X115423647Y-131257720D01*
X116630147Y-131774791D02*
X115423647Y-131774791D01*
X115423647Y-132062053D01*
X115481100Y-132234410D01*
X115596004Y-132349315D01*
X115710909Y-132406767D01*
X115940719Y-132464220D01*
X116113076Y-132464220D01*
X116342885Y-132406767D01*
X116457790Y-132349315D01*
X116572695Y-132234410D01*
X116630147Y-132062053D01*
X116630147Y-131774791D01*
X115940719Y-133153648D02*
X115883266Y-133038744D01*
X115825814Y-132981291D01*
X115710909Y-132923839D01*
X115653457Y-132923839D01*
X115538552Y-132981291D01*
X115481100Y-133038744D01*
X115423647Y-133153648D01*
X115423647Y-133383458D01*
X115481100Y-133498363D01*
X115538552Y-133555815D01*
X115653457Y-133613267D01*
X115710909Y-133613267D01*
X115825814Y-133555815D01*
X115883266Y-133498363D01*
X115940719Y-133383458D01*
X115940719Y-133153648D01*
X115998171Y-133038744D01*
X116055623Y-132981291D01*
X116170528Y-132923839D01*
X116400338Y-132923839D01*
X116515242Y-132981291D01*
X116572695Y-133038744D01*
X116630147Y-133153648D01*
X116630147Y-133383458D01*
X116572695Y-133498363D01*
X116515242Y-133555815D01*
X116400338Y-133613267D01*
X116170528Y-133613267D01*
X116055623Y-133555815D01*
X115998171Y-133498363D01*
X115940719Y-133383458D01*
M02*
