G04 #@! TF.GenerationSoftware,KiCad,Pcbnew,(5.1.6)-1*
G04 #@! TF.CreationDate,2020-06-14T17:11:32+02:00*
G04 #@! TF.ProjectId,fuseboardv4,66757365-626f-4617-9264-76342e6b6963,rev?*
G04 #@! TF.SameCoordinates,Original*
G04 #@! TF.FileFunction,Legend,Top*
G04 #@! TF.FilePolarity,Positive*
%FSLAX46Y46*%
G04 Gerber Fmt 4.6, Leading zero omitted, Abs format (unit mm)*
G04 Created by KiCad (PCBNEW (5.1.6)-1) date 2020-06-14 17:11:32*
%MOMM*%
%LPD*%
G01*
G04 APERTURE LIST*
G04 #@! TA.AperFunction,Profile*
%ADD10C,0.150000*%
G04 #@! TD*
%ADD11C,0.150000*%
%ADD12C,0.127000*%
%ADD13C,0.120000*%
%ADD14C,0.100000*%
%ADD15C,0.152400*%
%ADD16C,0.254000*%
%ADD17C,0.168910*%
%ADD18C,0.120650*%
%ADD19C,0.094107*%
G04 APERTURE END LIST*
D10*
X87630000Y-147320000D02*
X205000000Y-147320000D01*
X205000000Y-54610000D02*
X87630000Y-54610000D01*
X87630000Y-54610000D02*
X87630000Y-147320000D01*
X205000000Y-54610000D02*
X205000000Y-147320000D01*
D11*
X195313000Y-137160000D02*
G75*
G03*
X195313000Y-137160000I-3000000J0D01*
G01*
X195313000Y-79248000D02*
G75*
G03*
X195313000Y-79248000I-3000000J0D01*
G01*
X195313000Y-117856000D02*
G75*
G03*
X195313000Y-117856000I-3000000J0D01*
G01*
X195313000Y-98552000D02*
G75*
G03*
X195313000Y-98552000I-3000000J0D01*
G01*
X139687000Y-137160000D02*
G75*
G03*
X139687000Y-137160000I-3000000J0D01*
G01*
X139687000Y-117856000D02*
G75*
G03*
X139687000Y-117856000I-3000000J0D01*
G01*
X139687000Y-98552000D02*
G75*
G03*
X139687000Y-98552000I-3000000J0D01*
G01*
X139687000Y-79248000D02*
G75*
G03*
X139687000Y-79248000I-3000000J0D01*
G01*
D12*
X125130000Y-69215000D02*
X203870000Y-69215000D01*
X203870000Y-69215000D02*
X203870000Y-147193000D01*
X124876000Y-69215000D02*
X125130000Y-69215000D01*
X125130000Y-147193000D02*
X203870000Y-147193000D01*
X125130000Y-69215000D02*
X125130000Y-147193000D01*
D13*
X178090000Y-62230000D02*
G75*
G03*
X178090000Y-62230000I-1680000J0D01*
G01*
X165100000Y-67130000D02*
X180220000Y-67130000D01*
X165100000Y-65230000D02*
X180220000Y-65230000D01*
X165100000Y-58630000D02*
X180220000Y-58630000D01*
X165100000Y-56670000D02*
X165100000Y-67790000D01*
X165100000Y-67790000D02*
X180220000Y-67790000D01*
X180220000Y-67790000D02*
X180220000Y-56670000D01*
X180220000Y-56670000D02*
X165100000Y-56670000D01*
X177685000Y-61161000D02*
X177638000Y-61207000D01*
X175376000Y-63469000D02*
X175341000Y-63504000D01*
X177480000Y-60955000D02*
X177445000Y-60991000D01*
X175183000Y-63253000D02*
X175136000Y-63299000D01*
X164860000Y-67190000D02*
X164860000Y-68030000D01*
X164860000Y-68030000D02*
X165460000Y-68030000D01*
X168938805Y-63910253D02*
G75*
G02*
X168226000Y-63765000I-28805J1680253D01*
G01*
X167374574Y-62913042D02*
G75*
G02*
X167375000Y-61546000I1535426J683042D01*
G01*
X168226958Y-60694574D02*
G75*
G02*
X169594000Y-60695000I683042J-1535426D01*
G01*
X170445426Y-61546958D02*
G75*
G02*
X170445000Y-62914000I-1535426J-683042D01*
G01*
X169593318Y-63764756D02*
G75*
G02*
X168910000Y-63910000I-683318J1534756D01*
G01*
D11*
X96106100Y-137740000D02*
X103106100Y-137740000D01*
X103106100Y-137740000D02*
X103106100Y-146740000D01*
X103106100Y-146740000D02*
X96106100Y-146740000D01*
X96106100Y-146740000D02*
X96106100Y-137740000D01*
D14*
G36*
X94145100Y-67564000D02*
G01*
X90335100Y-67564000D01*
X90335100Y-69342000D01*
X94145100Y-69342000D01*
X94145100Y-67564000D01*
G37*
G36*
X94145100Y-70866000D02*
G01*
X90335100Y-70866000D01*
X90335100Y-72644000D01*
X94145100Y-72644000D01*
X94145100Y-70866000D01*
G37*
G36*
X90335100Y-66929000D02*
G01*
X89065100Y-66929000D01*
X89065100Y-68199000D01*
X90335100Y-68199000D01*
X90335100Y-66929000D01*
G37*
G36*
X90335100Y-72009000D02*
G01*
X89065100Y-72009000D01*
X89065100Y-73279000D01*
X90335100Y-73279000D01*
X90335100Y-72009000D01*
G37*
G36*
X94780100Y-67564000D02*
G01*
X94145100Y-67564000D01*
X94145100Y-72644000D01*
X94780100Y-72644000D01*
X94780100Y-67564000D01*
G37*
G36*
X95415100Y-66929000D02*
G01*
X94145100Y-66929000D01*
X94145100Y-68199000D01*
X95415100Y-68199000D01*
X95415100Y-66929000D01*
G37*
G36*
X95415100Y-72009000D02*
G01*
X94145100Y-72009000D01*
X94145100Y-73279000D01*
X95415100Y-73279000D01*
X95415100Y-72009000D01*
G37*
G36*
X109385100Y-67564000D02*
G01*
X105575100Y-67564000D01*
X105575100Y-69342000D01*
X109385100Y-69342000D01*
X109385100Y-67564000D01*
G37*
G36*
X109385100Y-70866000D02*
G01*
X105575100Y-70866000D01*
X105575100Y-72644000D01*
X109385100Y-72644000D01*
X109385100Y-70866000D01*
G37*
G36*
X105575100Y-67564000D02*
G01*
X104940100Y-67564000D01*
X104940100Y-72644000D01*
X105575100Y-72644000D01*
X105575100Y-67564000D01*
G37*
G36*
X105575100Y-66929000D02*
G01*
X104305100Y-66929000D01*
X104305100Y-68199000D01*
X105575100Y-68199000D01*
X105575100Y-66929000D01*
G37*
G36*
X105575100Y-72009000D02*
G01*
X104305100Y-72009000D01*
X104305100Y-73279000D01*
X105575100Y-73279000D01*
X105575100Y-72009000D01*
G37*
G36*
X110655100Y-66929000D02*
G01*
X109385100Y-66929000D01*
X109385100Y-68199000D01*
X110655100Y-68199000D01*
X110655100Y-66929000D01*
G37*
G36*
X110655100Y-72009000D02*
G01*
X109385100Y-72009000D01*
X109385100Y-73279000D01*
X110655100Y-73279000D01*
X110655100Y-72009000D01*
G37*
D15*
X99987100Y-70104000D02*
G75*
G03*
X99987100Y-70104000I-127000J0D01*
G01*
X96050100Y-68580000D02*
X96050100Y-72009000D01*
X103670100Y-71628000D02*
X103670100Y-68199000D01*
X103670100Y-71628000D02*
X96050100Y-68580000D01*
X104305100Y-67310000D02*
X95415100Y-67310000D01*
X104305100Y-72898000D02*
X95415100Y-72898000D01*
X88430100Y-68199000D02*
X89700100Y-68199000D01*
X88430100Y-72009000D02*
X88430100Y-68199000D01*
X89700100Y-72009000D02*
X88430100Y-72009000D01*
X90335100Y-66294000D02*
X90335100Y-67564000D01*
X90335100Y-66294000D02*
X94145100Y-66294000D01*
X94145100Y-67564000D02*
X94145100Y-66294000D01*
X90335100Y-72644000D02*
X90335100Y-73914000D01*
X94145100Y-73914000D02*
X90335100Y-73914000D01*
X94145100Y-72644000D02*
X94145100Y-73914000D01*
X96050100Y-68199000D02*
X94780100Y-68199000D01*
X96050100Y-68199000D02*
X96050100Y-68580000D01*
X94780100Y-72009000D02*
X96050100Y-72009000D01*
X103670100Y-68199000D02*
X104940100Y-68199000D01*
X103670100Y-72009000D02*
X103670100Y-71628000D01*
X104940100Y-72009000D02*
X103670100Y-72009000D01*
X105575100Y-66294000D02*
X105575100Y-67564000D01*
X105575100Y-66294000D02*
X109385100Y-66294000D01*
X109385100Y-67564000D02*
X109385100Y-66294000D01*
X105575100Y-72644000D02*
X105575100Y-73914000D01*
X109385100Y-73914000D02*
X105575100Y-73914000D01*
X109385100Y-72644000D02*
X109385100Y-73914000D01*
X111290100Y-68199000D02*
X110020100Y-68199000D01*
X111290100Y-68199000D02*
X111290100Y-72009000D01*
X110020100Y-72009000D02*
X111290100Y-72009000D01*
D14*
G36*
X94145100Y-86868000D02*
G01*
X90335100Y-86868000D01*
X90335100Y-88646000D01*
X94145100Y-88646000D01*
X94145100Y-86868000D01*
G37*
G36*
X94145100Y-90170000D02*
G01*
X90335100Y-90170000D01*
X90335100Y-91948000D01*
X94145100Y-91948000D01*
X94145100Y-90170000D01*
G37*
G36*
X90335100Y-86233000D02*
G01*
X89065100Y-86233000D01*
X89065100Y-87503000D01*
X90335100Y-87503000D01*
X90335100Y-86233000D01*
G37*
G36*
X90335100Y-91313000D02*
G01*
X89065100Y-91313000D01*
X89065100Y-92583000D01*
X90335100Y-92583000D01*
X90335100Y-91313000D01*
G37*
G36*
X94780100Y-86868000D02*
G01*
X94145100Y-86868000D01*
X94145100Y-91948000D01*
X94780100Y-91948000D01*
X94780100Y-86868000D01*
G37*
G36*
X95415100Y-86233000D02*
G01*
X94145100Y-86233000D01*
X94145100Y-87503000D01*
X95415100Y-87503000D01*
X95415100Y-86233000D01*
G37*
G36*
X95415100Y-91313000D02*
G01*
X94145100Y-91313000D01*
X94145100Y-92583000D01*
X95415100Y-92583000D01*
X95415100Y-91313000D01*
G37*
G36*
X109385100Y-86868000D02*
G01*
X105575100Y-86868000D01*
X105575100Y-88646000D01*
X109385100Y-88646000D01*
X109385100Y-86868000D01*
G37*
G36*
X109385100Y-90170000D02*
G01*
X105575100Y-90170000D01*
X105575100Y-91948000D01*
X109385100Y-91948000D01*
X109385100Y-90170000D01*
G37*
G36*
X105575100Y-86868000D02*
G01*
X104940100Y-86868000D01*
X104940100Y-91948000D01*
X105575100Y-91948000D01*
X105575100Y-86868000D01*
G37*
G36*
X105575100Y-86233000D02*
G01*
X104305100Y-86233000D01*
X104305100Y-87503000D01*
X105575100Y-87503000D01*
X105575100Y-86233000D01*
G37*
G36*
X105575100Y-91313000D02*
G01*
X104305100Y-91313000D01*
X104305100Y-92583000D01*
X105575100Y-92583000D01*
X105575100Y-91313000D01*
G37*
G36*
X110655100Y-86233000D02*
G01*
X109385100Y-86233000D01*
X109385100Y-87503000D01*
X110655100Y-87503000D01*
X110655100Y-86233000D01*
G37*
G36*
X110655100Y-91313000D02*
G01*
X109385100Y-91313000D01*
X109385100Y-92583000D01*
X110655100Y-92583000D01*
X110655100Y-91313000D01*
G37*
D15*
X99987100Y-89408000D02*
G75*
G03*
X99987100Y-89408000I-127000J0D01*
G01*
X96050100Y-87884000D02*
X96050100Y-91313000D01*
X103670100Y-90932000D02*
X103670100Y-87503000D01*
X103670100Y-90932000D02*
X96050100Y-87884000D01*
X104305100Y-86614000D02*
X95415100Y-86614000D01*
X104305100Y-92202000D02*
X95415100Y-92202000D01*
X88430100Y-87503000D02*
X89700100Y-87503000D01*
X88430100Y-91313000D02*
X88430100Y-87503000D01*
X89700100Y-91313000D02*
X88430100Y-91313000D01*
X90335100Y-85598000D02*
X90335100Y-86868000D01*
X90335100Y-85598000D02*
X94145100Y-85598000D01*
X94145100Y-86868000D02*
X94145100Y-85598000D01*
X90335100Y-91948000D02*
X90335100Y-93218000D01*
X94145100Y-93218000D02*
X90335100Y-93218000D01*
X94145100Y-91948000D02*
X94145100Y-93218000D01*
X96050100Y-87503000D02*
X94780100Y-87503000D01*
X96050100Y-87503000D02*
X96050100Y-87884000D01*
X94780100Y-91313000D02*
X96050100Y-91313000D01*
X103670100Y-87503000D02*
X104940100Y-87503000D01*
X103670100Y-91313000D02*
X103670100Y-90932000D01*
X104940100Y-91313000D02*
X103670100Y-91313000D01*
X105575100Y-85598000D02*
X105575100Y-86868000D01*
X105575100Y-85598000D02*
X109385100Y-85598000D01*
X109385100Y-86868000D02*
X109385100Y-85598000D01*
X105575100Y-91948000D02*
X105575100Y-93218000D01*
X109385100Y-93218000D02*
X105575100Y-93218000D01*
X109385100Y-91948000D02*
X109385100Y-93218000D01*
X111290100Y-87503000D02*
X110020100Y-87503000D01*
X111290100Y-87503000D02*
X111290100Y-91313000D01*
X110020100Y-91313000D02*
X111290100Y-91313000D01*
D14*
G36*
X94272100Y-106172000D02*
G01*
X90462100Y-106172000D01*
X90462100Y-107950000D01*
X94272100Y-107950000D01*
X94272100Y-106172000D01*
G37*
G36*
X94272100Y-109474000D02*
G01*
X90462100Y-109474000D01*
X90462100Y-111252000D01*
X94272100Y-111252000D01*
X94272100Y-109474000D01*
G37*
G36*
X90462100Y-105537000D02*
G01*
X89192100Y-105537000D01*
X89192100Y-106807000D01*
X90462100Y-106807000D01*
X90462100Y-105537000D01*
G37*
G36*
X90462100Y-110617000D02*
G01*
X89192100Y-110617000D01*
X89192100Y-111887000D01*
X90462100Y-111887000D01*
X90462100Y-110617000D01*
G37*
G36*
X94907100Y-106172000D02*
G01*
X94272100Y-106172000D01*
X94272100Y-111252000D01*
X94907100Y-111252000D01*
X94907100Y-106172000D01*
G37*
G36*
X95542100Y-105537000D02*
G01*
X94272100Y-105537000D01*
X94272100Y-106807000D01*
X95542100Y-106807000D01*
X95542100Y-105537000D01*
G37*
G36*
X95542100Y-110617000D02*
G01*
X94272100Y-110617000D01*
X94272100Y-111887000D01*
X95542100Y-111887000D01*
X95542100Y-110617000D01*
G37*
G36*
X109512100Y-106172000D02*
G01*
X105702100Y-106172000D01*
X105702100Y-107950000D01*
X109512100Y-107950000D01*
X109512100Y-106172000D01*
G37*
G36*
X109512100Y-109474000D02*
G01*
X105702100Y-109474000D01*
X105702100Y-111252000D01*
X109512100Y-111252000D01*
X109512100Y-109474000D01*
G37*
G36*
X105702100Y-106172000D02*
G01*
X105067100Y-106172000D01*
X105067100Y-111252000D01*
X105702100Y-111252000D01*
X105702100Y-106172000D01*
G37*
G36*
X105702100Y-105537000D02*
G01*
X104432100Y-105537000D01*
X104432100Y-106807000D01*
X105702100Y-106807000D01*
X105702100Y-105537000D01*
G37*
G36*
X105702100Y-110617000D02*
G01*
X104432100Y-110617000D01*
X104432100Y-111887000D01*
X105702100Y-111887000D01*
X105702100Y-110617000D01*
G37*
G36*
X110782100Y-105537000D02*
G01*
X109512100Y-105537000D01*
X109512100Y-106807000D01*
X110782100Y-106807000D01*
X110782100Y-105537000D01*
G37*
G36*
X110782100Y-110617000D02*
G01*
X109512100Y-110617000D01*
X109512100Y-111887000D01*
X110782100Y-111887000D01*
X110782100Y-110617000D01*
G37*
D15*
X100114100Y-108712000D02*
G75*
G03*
X100114100Y-108712000I-127000J0D01*
G01*
X96177100Y-107188000D02*
X96177100Y-110617000D01*
X103797100Y-110236000D02*
X103797100Y-106807000D01*
X103797100Y-110236000D02*
X96177100Y-107188000D01*
X104432100Y-105918000D02*
X95542100Y-105918000D01*
X104432100Y-111506000D02*
X95542100Y-111506000D01*
X88557100Y-106807000D02*
X89827100Y-106807000D01*
X88557100Y-110617000D02*
X88557100Y-106807000D01*
X89827100Y-110617000D02*
X88557100Y-110617000D01*
X90462100Y-104902000D02*
X90462100Y-106172000D01*
X90462100Y-104902000D02*
X94272100Y-104902000D01*
X94272100Y-106172000D02*
X94272100Y-104902000D01*
X90462100Y-111252000D02*
X90462100Y-112522000D01*
X94272100Y-112522000D02*
X90462100Y-112522000D01*
X94272100Y-111252000D02*
X94272100Y-112522000D01*
X96177100Y-106807000D02*
X94907100Y-106807000D01*
X96177100Y-106807000D02*
X96177100Y-107188000D01*
X94907100Y-110617000D02*
X96177100Y-110617000D01*
X103797100Y-106807000D02*
X105067100Y-106807000D01*
X103797100Y-110617000D02*
X103797100Y-110236000D01*
X105067100Y-110617000D02*
X103797100Y-110617000D01*
X105702100Y-104902000D02*
X105702100Y-106172000D01*
X105702100Y-104902000D02*
X109512100Y-104902000D01*
X109512100Y-106172000D02*
X109512100Y-104902000D01*
X105702100Y-111252000D02*
X105702100Y-112522000D01*
X109512100Y-112522000D02*
X105702100Y-112522000D01*
X109512100Y-111252000D02*
X109512100Y-112522000D01*
X111417100Y-106807000D02*
X110147100Y-106807000D01*
X111417100Y-106807000D02*
X111417100Y-110617000D01*
X110147100Y-110617000D02*
X111417100Y-110617000D01*
D14*
G36*
X94399100Y-125666500D02*
G01*
X90589100Y-125666500D01*
X90589100Y-127444500D01*
X94399100Y-127444500D01*
X94399100Y-125666500D01*
G37*
G36*
X94399100Y-128968500D02*
G01*
X90589100Y-128968500D01*
X90589100Y-130746500D01*
X94399100Y-130746500D01*
X94399100Y-128968500D01*
G37*
G36*
X90589100Y-125031500D02*
G01*
X89319100Y-125031500D01*
X89319100Y-126301500D01*
X90589100Y-126301500D01*
X90589100Y-125031500D01*
G37*
G36*
X90589100Y-130111500D02*
G01*
X89319100Y-130111500D01*
X89319100Y-131381500D01*
X90589100Y-131381500D01*
X90589100Y-130111500D01*
G37*
G36*
X95034100Y-125666500D02*
G01*
X94399100Y-125666500D01*
X94399100Y-130746500D01*
X95034100Y-130746500D01*
X95034100Y-125666500D01*
G37*
G36*
X95669100Y-125031500D02*
G01*
X94399100Y-125031500D01*
X94399100Y-126301500D01*
X95669100Y-126301500D01*
X95669100Y-125031500D01*
G37*
G36*
X95669100Y-130111500D02*
G01*
X94399100Y-130111500D01*
X94399100Y-131381500D01*
X95669100Y-131381500D01*
X95669100Y-130111500D01*
G37*
G36*
X109639100Y-125666500D02*
G01*
X105829100Y-125666500D01*
X105829100Y-127444500D01*
X109639100Y-127444500D01*
X109639100Y-125666500D01*
G37*
G36*
X109639100Y-128968500D02*
G01*
X105829100Y-128968500D01*
X105829100Y-130746500D01*
X109639100Y-130746500D01*
X109639100Y-128968500D01*
G37*
G36*
X105829100Y-125666500D02*
G01*
X105194100Y-125666500D01*
X105194100Y-130746500D01*
X105829100Y-130746500D01*
X105829100Y-125666500D01*
G37*
G36*
X105829100Y-125031500D02*
G01*
X104559100Y-125031500D01*
X104559100Y-126301500D01*
X105829100Y-126301500D01*
X105829100Y-125031500D01*
G37*
G36*
X105829100Y-130111500D02*
G01*
X104559100Y-130111500D01*
X104559100Y-131381500D01*
X105829100Y-131381500D01*
X105829100Y-130111500D01*
G37*
G36*
X110909100Y-125031500D02*
G01*
X109639100Y-125031500D01*
X109639100Y-126301500D01*
X110909100Y-126301500D01*
X110909100Y-125031500D01*
G37*
G36*
X110909100Y-130111500D02*
G01*
X109639100Y-130111500D01*
X109639100Y-131381500D01*
X110909100Y-131381500D01*
X110909100Y-130111500D01*
G37*
D15*
X100241100Y-128206500D02*
G75*
G03*
X100241100Y-128206500I-127000J0D01*
G01*
X96304100Y-126682500D02*
X96304100Y-130111500D01*
X103924100Y-129730500D02*
X103924100Y-126301500D01*
X103924100Y-129730500D02*
X96304100Y-126682500D01*
X104559100Y-125412500D02*
X95669100Y-125412500D01*
X104559100Y-131000500D02*
X95669100Y-131000500D01*
X88684100Y-126301500D02*
X89954100Y-126301500D01*
X88684100Y-130111500D02*
X88684100Y-126301500D01*
X89954100Y-130111500D02*
X88684100Y-130111500D01*
X90589100Y-124396500D02*
X90589100Y-125666500D01*
X90589100Y-124396500D02*
X94399100Y-124396500D01*
X94399100Y-125666500D02*
X94399100Y-124396500D01*
X90589100Y-130746500D02*
X90589100Y-132016500D01*
X94399100Y-132016500D02*
X90589100Y-132016500D01*
X94399100Y-130746500D02*
X94399100Y-132016500D01*
X96304100Y-126301500D02*
X95034100Y-126301500D01*
X96304100Y-126301500D02*
X96304100Y-126682500D01*
X95034100Y-130111500D02*
X96304100Y-130111500D01*
X103924100Y-126301500D02*
X105194100Y-126301500D01*
X103924100Y-130111500D02*
X103924100Y-129730500D01*
X105194100Y-130111500D02*
X103924100Y-130111500D01*
X105829100Y-124396500D02*
X105829100Y-125666500D01*
X105829100Y-124396500D02*
X109639100Y-124396500D01*
X109639100Y-125666500D02*
X109639100Y-124396500D01*
X105829100Y-130746500D02*
X105829100Y-132016500D01*
X109639100Y-132016500D02*
X105829100Y-132016500D01*
X109639100Y-130746500D02*
X109639100Y-132016500D01*
X111544100Y-126301500D02*
X110274100Y-126301500D01*
X111544100Y-126301500D02*
X111544100Y-130111500D01*
X110274100Y-130111500D02*
X111544100Y-130111500D01*
D16*
X113576100Y-69032000D02*
G75*
G02*
X111811800Y-68008200I-56J2032000D01*
G01*
X115127300Y-68312600D02*
G75*
G02*
X113576100Y-69032000I-1551163J1312600D01*
G01*
X113576100Y-64968000D02*
G75*
G03*
X111783200Y-66043800I60J-2032000D01*
G01*
X115137100Y-65699100D02*
G75*
G03*
X113576100Y-64968000I-1560988J-1300900D01*
G01*
D15*
X113576100Y-68524000D02*
G75*
G02*
X112373100Y-67935600I8J1524000D01*
G01*
X114779100Y-67935600D02*
G75*
G02*
X113576100Y-68524000I-1203008J935600D01*
G01*
X113576100Y-65476000D02*
G75*
G03*
X112356900Y-66085600I0J-1524000D01*
G01*
X114816200Y-66114199D02*
G75*
G03*
X113576100Y-65476000I-1240134J-885801D01*
G01*
D16*
X113576100Y-87630000D02*
G75*
G02*
X111811800Y-86606200I-56J2032000D01*
G01*
X115127300Y-86910600D02*
G75*
G02*
X113576100Y-87630000I-1551163J1312600D01*
G01*
X113576100Y-83566000D02*
G75*
G03*
X111783200Y-84641800I60J-2032000D01*
G01*
X115137100Y-84297100D02*
G75*
G03*
X113576100Y-83566000I-1560988J-1300900D01*
G01*
D15*
X113576100Y-87122000D02*
G75*
G02*
X112373100Y-86533600I8J1524000D01*
G01*
X114779100Y-86533600D02*
G75*
G02*
X113576100Y-87122000I-1203008J935600D01*
G01*
X113576100Y-84074000D02*
G75*
G03*
X112356900Y-84683600I0J-1524000D01*
G01*
X114816200Y-84712199D02*
G75*
G03*
X113576100Y-84074000I-1240134J-885801D01*
G01*
D16*
X113576100Y-106934000D02*
G75*
G02*
X111811800Y-105910200I-56J2032000D01*
G01*
X115127300Y-106214600D02*
G75*
G02*
X113576100Y-106934000I-1551163J1312600D01*
G01*
X113576100Y-102870000D02*
G75*
G03*
X111783200Y-103945800I60J-2032000D01*
G01*
X115137100Y-103601100D02*
G75*
G03*
X113576100Y-102870000I-1560988J-1300900D01*
G01*
D15*
X113576100Y-106426000D02*
G75*
G02*
X112373100Y-105837600I8J1524000D01*
G01*
X114779100Y-105837600D02*
G75*
G02*
X113576100Y-106426000I-1203008J935600D01*
G01*
X113576100Y-103378000D02*
G75*
G03*
X112356900Y-103987600I0J-1524000D01*
G01*
X114816200Y-104016199D02*
G75*
G03*
X113576100Y-103378000I-1240134J-885801D01*
G01*
D16*
X113576100Y-126428500D02*
G75*
G02*
X111811800Y-125404700I-56J2032000D01*
G01*
X115127300Y-125709100D02*
G75*
G02*
X113576100Y-126428500I-1551163J1312600D01*
G01*
X113576100Y-122364500D02*
G75*
G03*
X111783200Y-123440300I60J-2032000D01*
G01*
X115137100Y-123095600D02*
G75*
G03*
X113576100Y-122364500I-1560988J-1300900D01*
G01*
D15*
X113576100Y-125920500D02*
G75*
G02*
X112373100Y-125332100I8J1524000D01*
G01*
X114779100Y-125332100D02*
G75*
G02*
X113576100Y-125920500I-1203008J935600D01*
G01*
X113576100Y-122872500D02*
G75*
G03*
X112356900Y-123482100I0J-1524000D01*
G01*
X114816200Y-123510699D02*
G75*
G03*
X113576100Y-122872500I-1240134J-885801D01*
G01*
D14*
G36*
X117602000Y-73025000D02*
G01*
X117602000Y-72644000D01*
X117094000Y-72644000D01*
X117094000Y-73025000D01*
X117602000Y-73025000D01*
G37*
G36*
X117602000Y-67564000D02*
G01*
X117602000Y-67183000D01*
X117094000Y-67183000D01*
X117094000Y-67564000D01*
X117602000Y-67564000D01*
G37*
D15*
X118110000Y-67564000D02*
X116586000Y-67564000D01*
X118364000Y-67818000D02*
X118364000Y-68199000D01*
X116332000Y-67818000D02*
X116332000Y-68199000D01*
X118237000Y-68326000D02*
X118237000Y-71882000D01*
X118237000Y-68326000D02*
X118364000Y-68199000D01*
X116459000Y-68326000D02*
X116459000Y-71882000D01*
X116459000Y-68326000D02*
X116332000Y-68199000D01*
X118237000Y-71882000D02*
X118364000Y-72009000D01*
X118364000Y-72390000D02*
X118364000Y-72009000D01*
X116459000Y-71882000D02*
X116332000Y-72009000D01*
X116332000Y-72390000D02*
X116332000Y-72009000D01*
X118110000Y-72644000D02*
X116586000Y-72644000D01*
X116586000Y-67564000D02*
G75*
G03*
X116332000Y-67818000I0J-254000D01*
G01*
X118110000Y-67564000D02*
G75*
G02*
X118364000Y-67818000I0J-254000D01*
G01*
X118364000Y-72390000D02*
G75*
G02*
X118110000Y-72644000I-254000J0D01*
G01*
X116332000Y-72390000D02*
G75*
G03*
X116586000Y-72644000I254000J0D01*
G01*
D14*
G36*
X117602000Y-92329000D02*
G01*
X117602000Y-91948000D01*
X117094000Y-91948000D01*
X117094000Y-92329000D01*
X117602000Y-92329000D01*
G37*
G36*
X117602000Y-86868000D02*
G01*
X117602000Y-86487000D01*
X117094000Y-86487000D01*
X117094000Y-86868000D01*
X117602000Y-86868000D01*
G37*
D15*
X118110000Y-86868000D02*
X116586000Y-86868000D01*
X118364000Y-87122000D02*
X118364000Y-87503000D01*
X116332000Y-87122000D02*
X116332000Y-87503000D01*
X118237000Y-87630000D02*
X118237000Y-91186000D01*
X118237000Y-87630000D02*
X118364000Y-87503000D01*
X116459000Y-87630000D02*
X116459000Y-91186000D01*
X116459000Y-87630000D02*
X116332000Y-87503000D01*
X118237000Y-91186000D02*
X118364000Y-91313000D01*
X118364000Y-91694000D02*
X118364000Y-91313000D01*
X116459000Y-91186000D02*
X116332000Y-91313000D01*
X116332000Y-91694000D02*
X116332000Y-91313000D01*
X118110000Y-91948000D02*
X116586000Y-91948000D01*
X116586000Y-86868000D02*
G75*
G03*
X116332000Y-87122000I0J-254000D01*
G01*
X118110000Y-86868000D02*
G75*
G02*
X118364000Y-87122000I0J-254000D01*
G01*
X118364000Y-91694000D02*
G75*
G02*
X118110000Y-91948000I-254000J0D01*
G01*
X116332000Y-91694000D02*
G75*
G03*
X116586000Y-91948000I254000J0D01*
G01*
D14*
G36*
X117094000Y-105791000D02*
G01*
X117094000Y-106172000D01*
X117602000Y-106172000D01*
X117602000Y-105791000D01*
X117094000Y-105791000D01*
G37*
G36*
X117094000Y-111252000D02*
G01*
X117094000Y-111633000D01*
X117602000Y-111633000D01*
X117602000Y-111252000D01*
X117094000Y-111252000D01*
G37*
D15*
X116586000Y-111252000D02*
X118110000Y-111252000D01*
X116332000Y-110998000D02*
X116332000Y-110617000D01*
X118364000Y-110998000D02*
X118364000Y-110617000D01*
X116459000Y-110490000D02*
X116459000Y-106934000D01*
X116459000Y-110490000D02*
X116332000Y-110617000D01*
X118237000Y-110490000D02*
X118237000Y-106934000D01*
X118237000Y-110490000D02*
X118364000Y-110617000D01*
X116459000Y-106934000D02*
X116332000Y-106807000D01*
X116332000Y-106426000D02*
X116332000Y-106807000D01*
X118237000Y-106934000D02*
X118364000Y-106807000D01*
X118364000Y-106426000D02*
X118364000Y-106807000D01*
X116586000Y-106172000D02*
X118110000Y-106172000D01*
X118110000Y-111252000D02*
G75*
G03*
X118364000Y-110998000I0J254000D01*
G01*
X116586000Y-111252000D02*
G75*
G02*
X116332000Y-110998000I0J254000D01*
G01*
X116332000Y-106426000D02*
G75*
G02*
X116586000Y-106172000I254000J0D01*
G01*
X118364000Y-106426000D02*
G75*
G03*
X118110000Y-106172000I-254000J0D01*
G01*
D14*
G36*
X117856000Y-131127500D02*
G01*
X117856000Y-130746500D01*
X117348000Y-130746500D01*
X117348000Y-131127500D01*
X117856000Y-131127500D01*
G37*
G36*
X117856000Y-125666500D02*
G01*
X117856000Y-125285500D01*
X117348000Y-125285500D01*
X117348000Y-125666500D01*
X117856000Y-125666500D01*
G37*
D15*
X118364000Y-125666500D02*
X116840000Y-125666500D01*
X118618000Y-125920500D02*
X118618000Y-126301500D01*
X116586000Y-125920500D02*
X116586000Y-126301500D01*
X118491000Y-126428500D02*
X118491000Y-129984500D01*
X118491000Y-126428500D02*
X118618000Y-126301500D01*
X116713000Y-126428500D02*
X116713000Y-129984500D01*
X116713000Y-126428500D02*
X116586000Y-126301500D01*
X118491000Y-129984500D02*
X118618000Y-130111500D01*
X118618000Y-130492500D02*
X118618000Y-130111500D01*
X116713000Y-129984500D02*
X116586000Y-130111500D01*
X116586000Y-130492500D02*
X116586000Y-130111500D01*
X118364000Y-130746500D02*
X116840000Y-130746500D01*
X116840000Y-125666500D02*
G75*
G03*
X116586000Y-125920500I0J-254000D01*
G01*
X118364000Y-125666500D02*
G75*
G02*
X118618000Y-125920500I0J-254000D01*
G01*
X118618000Y-130492500D02*
G75*
G02*
X118364000Y-130746500I-254000J0D01*
G01*
X116586000Y-130492500D02*
G75*
G03*
X116840000Y-130746500I254000J0D01*
G01*
D11*
X169731428Y-55122380D02*
X169731428Y-55836666D01*
X169683809Y-55979523D01*
X169588571Y-56074761D01*
X169445714Y-56122380D01*
X169350476Y-56122380D01*
X170064761Y-55455714D02*
X170445714Y-55455714D01*
X170207619Y-55122380D02*
X170207619Y-55979523D01*
X170255238Y-56074761D01*
X170350476Y-56122380D01*
X170445714Y-56122380D01*
X170921904Y-56122380D02*
X170826666Y-56074761D01*
X170779047Y-56027142D01*
X170731428Y-55931904D01*
X170731428Y-55646190D01*
X170779047Y-55550952D01*
X170826666Y-55503333D01*
X170921904Y-55455714D01*
X171064761Y-55455714D01*
X171160000Y-55503333D01*
X171207619Y-55550952D01*
X171255238Y-55646190D01*
X171255238Y-55931904D01*
X171207619Y-56027142D01*
X171160000Y-56074761D01*
X171064761Y-56122380D01*
X170921904Y-56122380D01*
X171683809Y-55455714D02*
X171683809Y-56455714D01*
X171683809Y-55503333D02*
X171779047Y-55455714D01*
X171969523Y-55455714D01*
X172064761Y-55503333D01*
X172112380Y-55550952D01*
X172160000Y-55646190D01*
X172160000Y-55931904D01*
X172112380Y-56027142D01*
X172064761Y-56074761D01*
X171969523Y-56122380D01*
X171779047Y-56122380D01*
X171683809Y-56074761D01*
X172588571Y-56122380D02*
X172588571Y-55122380D01*
X173160000Y-56122380D01*
X173160000Y-55122380D01*
X174017142Y-56074761D02*
X173921904Y-56122380D01*
X173731428Y-56122380D01*
X173636190Y-56074761D01*
X173588571Y-55979523D01*
X173588571Y-55598571D01*
X173636190Y-55503333D01*
X173731428Y-55455714D01*
X173921904Y-55455714D01*
X174017142Y-55503333D01*
X174064761Y-55598571D01*
X174064761Y-55693809D01*
X173588571Y-55789047D01*
X174921904Y-55455714D02*
X174921904Y-56265238D01*
X174874285Y-56360476D01*
X174826666Y-56408095D01*
X174731428Y-56455714D01*
X174588571Y-56455714D01*
X174493333Y-56408095D01*
X174921904Y-56074761D02*
X174826666Y-56122380D01*
X174636190Y-56122380D01*
X174540952Y-56074761D01*
X174493333Y-56027142D01*
X174445714Y-55931904D01*
X174445714Y-55646190D01*
X174493333Y-55550952D01*
X174540952Y-55503333D01*
X174636190Y-55455714D01*
X174826666Y-55455714D01*
X174921904Y-55503333D01*
X175921904Y-56122380D02*
X175350476Y-56122380D01*
X175636190Y-56122380D02*
X175636190Y-55122380D01*
X175540952Y-55265238D01*
X175445714Y-55360476D01*
X175350476Y-55408095D01*
D17*
X111564991Y-73964800D02*
X111001958Y-73964800D01*
X111001958Y-74849566D02*
X111001958Y-73160466D01*
X111806291Y-73160466D01*
X113334524Y-74849566D02*
X112369324Y-74849566D01*
X112851924Y-74849566D02*
X112851924Y-73160466D01*
X112691058Y-73401766D01*
X112530191Y-73562633D01*
X112369324Y-73643066D01*
X102489000Y-98594058D02*
X102489000Y-99157091D01*
X103373766Y-99157091D02*
X101684666Y-99157091D01*
X101684666Y-98352758D01*
X101845533Y-97789724D02*
X101765100Y-97709291D01*
X101684666Y-97548424D01*
X101684666Y-97146258D01*
X101765100Y-96985391D01*
X101845533Y-96904958D01*
X102006400Y-96824524D01*
X102167266Y-96824524D01*
X102408566Y-96904958D01*
X103373766Y-97870158D01*
X103373766Y-96824524D01*
X102616000Y-117898058D02*
X102616000Y-118461091D01*
X103500766Y-118461091D02*
X101811666Y-118461091D01*
X101811666Y-117656758D01*
X101811666Y-117174158D02*
X101811666Y-116128524D01*
X102455133Y-116691558D01*
X102455133Y-116450258D01*
X102535566Y-116289391D01*
X102616000Y-116208958D01*
X102776866Y-116128524D01*
X103179033Y-116128524D01*
X103339900Y-116208958D01*
X103420333Y-116289391D01*
X103500766Y-116450258D01*
X103500766Y-116932858D01*
X103420333Y-117093724D01*
X103339900Y-117174158D01*
X102743000Y-137392558D02*
X102743000Y-137955591D01*
X103627766Y-137955591D02*
X101938666Y-137955591D01*
X101938666Y-137151258D01*
X102501700Y-135783891D02*
X103627766Y-135783891D01*
X101858233Y-136186058D02*
X103064733Y-136588224D01*
X103064733Y-135542591D01*
D18*
X111840629Y-67768047D02*
X111266106Y-67768047D01*
X111266106Y-66561547D01*
X112242796Y-67136071D02*
X112644963Y-67136071D01*
X112817320Y-67768047D02*
X112242796Y-67768047D01*
X112242796Y-66561547D01*
X112817320Y-66561547D01*
X113334391Y-67768047D02*
X113334391Y-66561547D01*
X113621653Y-66561547D01*
X113794010Y-66619000D01*
X113908915Y-66733904D01*
X113966367Y-66848809D01*
X114023820Y-67078619D01*
X114023820Y-67250976D01*
X113966367Y-67480785D01*
X113908915Y-67595690D01*
X113794010Y-67710595D01*
X113621653Y-67768047D01*
X113334391Y-67768047D01*
X115172867Y-67768047D02*
X114483439Y-67768047D01*
X114828153Y-67768047D02*
X114828153Y-66561547D01*
X114713248Y-66733904D01*
X114598344Y-66848809D01*
X114483439Y-66906261D01*
X115423647Y-84276791D02*
X115423647Y-84851315D01*
X114217147Y-84851315D01*
X114791671Y-83874625D02*
X114791671Y-83472458D01*
X115423647Y-83300101D02*
X115423647Y-83874625D01*
X114217147Y-83874625D01*
X114217147Y-83300101D01*
X115423647Y-82783029D02*
X114217147Y-82783029D01*
X114217147Y-82495767D01*
X114274600Y-82323410D01*
X114389504Y-82208506D01*
X114504409Y-82151053D01*
X114734219Y-82093601D01*
X114906576Y-82093601D01*
X115136385Y-82151053D01*
X115251290Y-82208506D01*
X115366195Y-82323410D01*
X115423647Y-82495767D01*
X115423647Y-82783029D01*
X114332052Y-81633982D02*
X114274600Y-81576529D01*
X114217147Y-81461625D01*
X114217147Y-81174363D01*
X114274600Y-81059458D01*
X114332052Y-81002006D01*
X114446957Y-80944553D01*
X114561861Y-80944553D01*
X114734219Y-81002006D01*
X115423647Y-81691434D01*
X115423647Y-80944553D01*
X115423647Y-103580791D02*
X115423647Y-104155315D01*
X114217147Y-104155315D01*
X114791671Y-103178625D02*
X114791671Y-102776458D01*
X115423647Y-102604101D02*
X115423647Y-103178625D01*
X114217147Y-103178625D01*
X114217147Y-102604101D01*
X115423647Y-102087029D02*
X114217147Y-102087029D01*
X114217147Y-101799767D01*
X114274600Y-101627410D01*
X114389504Y-101512506D01*
X114504409Y-101455053D01*
X114734219Y-101397601D01*
X114906576Y-101397601D01*
X115136385Y-101455053D01*
X115251290Y-101512506D01*
X115366195Y-101627410D01*
X115423647Y-101799767D01*
X115423647Y-102087029D01*
X114217147Y-100995434D02*
X114217147Y-100248553D01*
X114676766Y-100650720D01*
X114676766Y-100478363D01*
X114734219Y-100363458D01*
X114791671Y-100306006D01*
X114906576Y-100248553D01*
X115193838Y-100248553D01*
X115308742Y-100306006D01*
X115366195Y-100363458D01*
X115423647Y-100478363D01*
X115423647Y-100823077D01*
X115366195Y-100937982D01*
X115308742Y-100995434D01*
X114332052Y-120375029D02*
X114332052Y-119800506D01*
X115538552Y-119800506D01*
X114964028Y-120777196D02*
X114964028Y-121179363D01*
X114332052Y-121351720D02*
X114332052Y-120777196D01*
X115538552Y-120777196D01*
X115538552Y-121351720D01*
X114332052Y-121868791D02*
X115538552Y-121868791D01*
X115538552Y-122156053D01*
X115481100Y-122328410D01*
X115366195Y-122443315D01*
X115251290Y-122500767D01*
X115021480Y-122558220D01*
X114849123Y-122558220D01*
X114619314Y-122500767D01*
X114504409Y-122443315D01*
X114389504Y-122328410D01*
X114332052Y-122156053D01*
X114332052Y-121868791D01*
X115136385Y-123592363D02*
X114332052Y-123592363D01*
X115596004Y-123305101D02*
X114734219Y-123017839D01*
X114734219Y-123764720D01*
D19*
X114915921Y-73540257D02*
X114602231Y-73092128D01*
X114378167Y-73540257D02*
X114378167Y-72599187D01*
X114736670Y-72599187D01*
X114826296Y-72644000D01*
X114871109Y-72688812D01*
X114915921Y-72778438D01*
X114915921Y-72912877D01*
X114871109Y-73002502D01*
X114826296Y-73047315D01*
X114736670Y-73092128D01*
X114378167Y-73092128D01*
X115812179Y-73540257D02*
X115274424Y-73540257D01*
X115543301Y-73540257D02*
X115543301Y-72599187D01*
X115453676Y-72733625D01*
X115364050Y-72823251D01*
X115274424Y-72868064D01*
X116875588Y-91903187D02*
X116561898Y-91455058D01*
X116337833Y-91903187D02*
X116337833Y-90962117D01*
X116696336Y-90962117D01*
X116785962Y-91006930D01*
X116830775Y-91051742D01*
X116875588Y-91141368D01*
X116875588Y-91275807D01*
X116830775Y-91365432D01*
X116785962Y-91410245D01*
X116696336Y-91455058D01*
X116337833Y-91455058D01*
X117234090Y-91051742D02*
X117278903Y-91006930D01*
X117368529Y-90962117D01*
X117592593Y-90962117D01*
X117682219Y-91006930D01*
X117727032Y-91051742D01*
X117771845Y-91141368D01*
X117771845Y-91230994D01*
X117727032Y-91365432D01*
X117189278Y-91903187D01*
X117771845Y-91903187D01*
X119466388Y-106127187D02*
X119152698Y-105679058D01*
X118928633Y-106127187D02*
X118928633Y-105186117D01*
X119287136Y-105186117D01*
X119376762Y-105230930D01*
X119421575Y-105275742D01*
X119466388Y-105365368D01*
X119466388Y-105499807D01*
X119421575Y-105589432D01*
X119376762Y-105634245D01*
X119287136Y-105679058D01*
X118928633Y-105679058D01*
X119780078Y-105186117D02*
X120362645Y-105186117D01*
X120048955Y-105544620D01*
X120183393Y-105544620D01*
X120273019Y-105589432D01*
X120317832Y-105634245D01*
X120362645Y-105723871D01*
X120362645Y-105947935D01*
X120317832Y-106037561D01*
X120273019Y-106082374D01*
X120183393Y-106127187D01*
X119914516Y-106127187D01*
X119824890Y-106082374D01*
X119780078Y-106037561D01*
X117129588Y-130701687D02*
X116815898Y-130253558D01*
X116591833Y-130701687D02*
X116591833Y-129760617D01*
X116950336Y-129760617D01*
X117039962Y-129805430D01*
X117084775Y-129850242D01*
X117129588Y-129939868D01*
X117129588Y-130074307D01*
X117084775Y-130163932D01*
X117039962Y-130208745D01*
X116950336Y-130253558D01*
X116591833Y-130253558D01*
X117936219Y-130074307D02*
X117936219Y-130701687D01*
X117712155Y-129715804D02*
X117488090Y-130387997D01*
X118070658Y-130387997D01*
M02*
