M48
; DRILL file {KiCad (5.1.6)-1} date 06/14/20 17:11:24
; FORMAT={-:-/ absolute / inch / decimal}
; #@! TF.CreationDate,2020-06-14T17:11:24+02:00
; #@! TF.GenerationSoftware,Kicad,Pcbnew,(5.1.6)-1
FMAT,2
INCH
T1C0.0320
T2C0.0472
T3C0.0500
T4C0.0551
T5C0.0650
T6C0.1260
%
G90
G05
T1
X4.7Y-5.2575
X4.7Y-5.5575
X4.4215Y-4.13
X4.5215Y-4.13
X4.4215Y-4.8975
X4.5215Y-4.8975
X4.7Y-4.49
X4.7Y-4.79
X4.4215Y-3.37
X4.5215Y-3.37
X4.63Y-4.8975
X4.63Y-5.1975
X4.69Y-2.97
X4.69Y-3.27
X4.62Y-4.13
X4.62Y-4.43
X4.62Y-3.37
X4.62Y-3.67
X4.4215Y-4.49
X4.5215Y-4.49
X4.4215Y-2.6378
X4.5215Y-2.6378
X4.4215Y-5.2575
X4.5215Y-5.2575
X4.62Y-2.61
X4.62Y-2.91
X4.4215Y-3.73
X4.5215Y-3.73
X4.4215Y-2.97
X4.5215Y-2.97
X4.7Y-3.73
X4.7Y-4.03
T2
X3.9215Y-2.45
X3.9215Y-5.6
T3
X3.5315Y-3.52
X3.7315Y-3.52
X4.1315Y-3.52
X4.3315Y-3.52
X3.5365Y-4.28
X3.7365Y-4.28
X4.1365Y-4.28
X4.3365Y-4.28
X3.5315Y-2.76
X3.7315Y-2.76
X4.1315Y-2.76
X4.3315Y-2.76
X3.5415Y-5.0475
X3.7415Y-5.0475
X4.1415Y-5.0475
X4.3415Y-5.0475
X3.5365Y-5.4075
X3.7365Y-5.4075
X4.1365Y-5.4075
X4.3365Y-5.4075
X3.5365Y-4.64
X3.7365Y-4.64
X4.1365Y-4.64
X4.3365Y-4.64
X3.5365Y-3.88
X3.7365Y-3.88
X4.1365Y-3.88
X4.3365Y-3.88
X3.5315Y-3.12
X3.7315Y-3.12
X4.1315Y-3.12
X4.3315Y-3.12
T4
X5.35Y-2.45
X5.6453Y-2.45
X6.65Y-2.45
X6.9453Y-2.45
T5
X5.0414Y-3.12
X5.0414Y-3.88
X5.0414Y-4.64
X5.0414Y-5.4
X7.9114Y-3.12
X7.9114Y-3.88
X7.9114Y-4.64
X7.9114Y-5.4
X4.865Y-3.12
X4.865Y-3.88
X4.865Y-4.64
X4.865Y-5.4
X7.735Y-3.12
X7.735Y-3.88
X7.735Y-4.64
X7.735Y-5.4
T6
X5.3814Y-3.12
X5.3814Y-3.88
X5.3814Y-4.64
X5.3814Y-5.4
X7.5714Y-3.12
X7.5714Y-3.88
X7.5714Y-4.64
X7.5714Y-5.4
X5.205Y-3.12
X5.205Y-3.88
X5.205Y-4.64
X5.205Y-5.4
X7.395Y-3.12
X7.395Y-3.88
X7.395Y-4.64
X7.395Y-5.4
T0
M30
